%
M48
M72
T01C0.0236
T02C0.0276
T03C0.0280
T04C0.0354
T05C0.0512
T06C0.0709
T07C0.1260
%
T01
X7260Y5599
X8260Y4599
X11260Y4099
X11760Y4599
X12260Y5099
X12760Y4599
X12260Y4099
X11760Y3599
X6260Y10099
X5760Y10599
X5260Y10099
X4760Y9599
X5260Y9099
X5760Y9599
T02
X5260Y5099
T03
X7410Y9099
X8110Y9099
X9910Y5099
X10610Y5099
T04
X12260Y6114
X12260Y8083
T05
X9260Y8099
X9260Y10099
T06
X10010Y12099
X7510Y12099
X7510Y2099
X10010Y2099
T07
X4760Y2099
X12760Y2099
X12760Y12099
X4760Y12099
M30
