G75*
%MOIN*%
%OFA0B0*%
%FSLAX25Y25*%
%IPPOS*%
%LPD*%
%AMOC8*
5,1,8,0,0,1.08239X$1,22.5*
%
%ADD10C,0.00600*%
%ADD11C,0.00500*%
%ADD12C,0.00400*%
%ADD13C,0.00800*%
%ADD14C,0.00300*%
%ADD15C,0.01000*%
D10*
X0057895Y0051287D02*
X0062165Y0051287D01*
X0060030Y0051287D02*
X0060030Y0057692D01*
X0057895Y0055557D01*
X0064341Y0056625D02*
X0065408Y0057692D01*
X0067543Y0057692D01*
X0068611Y0056625D01*
X0068611Y0055557D01*
X0064341Y0051287D01*
X0068611Y0051287D01*
X0070786Y0053422D02*
X0072921Y0051287D01*
X0075056Y0053422D01*
X0075056Y0057692D01*
X0070786Y0057692D02*
X0070786Y0053422D01*
X0080595Y0084487D02*
X0080595Y0086487D01*
X0081595Y0085487D02*
X0079595Y0085487D01*
X0069595Y0090987D02*
X0069597Y0091183D01*
X0069605Y0091380D01*
X0069617Y0091576D01*
X0069634Y0091771D01*
X0069655Y0091966D01*
X0069682Y0092161D01*
X0069713Y0092355D01*
X0069749Y0092548D01*
X0069789Y0092740D01*
X0069835Y0092931D01*
X0069885Y0093121D01*
X0069939Y0093309D01*
X0069999Y0093496D01*
X0070063Y0093682D01*
X0070131Y0093866D01*
X0070204Y0094048D01*
X0070281Y0094229D01*
X0070363Y0094407D01*
X0070449Y0094584D01*
X0070540Y0094758D01*
X0070634Y0094930D01*
X0070733Y0095100D01*
X0070836Y0095267D01*
X0070943Y0095432D01*
X0071054Y0095593D01*
X0071169Y0095753D01*
X0071288Y0095909D01*
X0071411Y0096062D01*
X0071537Y0096212D01*
X0071667Y0096359D01*
X0071801Y0096503D01*
X0071938Y0096644D01*
X0072079Y0096781D01*
X0072223Y0096915D01*
X0072370Y0097045D01*
X0072520Y0097171D01*
X0072673Y0097294D01*
X0072829Y0097413D01*
X0072989Y0097528D01*
X0073150Y0097639D01*
X0073315Y0097746D01*
X0073482Y0097849D01*
X0073652Y0097948D01*
X0073824Y0098042D01*
X0073998Y0098133D01*
X0074175Y0098219D01*
X0074353Y0098301D01*
X0074534Y0098378D01*
X0074716Y0098451D01*
X0074900Y0098519D01*
X0075086Y0098583D01*
X0075273Y0098643D01*
X0075461Y0098697D01*
X0075651Y0098747D01*
X0075842Y0098793D01*
X0076034Y0098833D01*
X0076227Y0098869D01*
X0076421Y0098900D01*
X0076616Y0098927D01*
X0076811Y0098948D01*
X0077006Y0098965D01*
X0077202Y0098977D01*
X0077399Y0098985D01*
X0077595Y0098987D01*
X0077791Y0098985D01*
X0077988Y0098977D01*
X0078184Y0098965D01*
X0078379Y0098948D01*
X0078574Y0098927D01*
X0078769Y0098900D01*
X0078963Y0098869D01*
X0079156Y0098833D01*
X0079348Y0098793D01*
X0079539Y0098747D01*
X0079729Y0098697D01*
X0079917Y0098643D01*
X0080104Y0098583D01*
X0080290Y0098519D01*
X0080474Y0098451D01*
X0080656Y0098378D01*
X0080837Y0098301D01*
X0081015Y0098219D01*
X0081192Y0098133D01*
X0081366Y0098042D01*
X0081538Y0097948D01*
X0081708Y0097849D01*
X0081875Y0097746D01*
X0082040Y0097639D01*
X0082201Y0097528D01*
X0082361Y0097413D01*
X0082517Y0097294D01*
X0082670Y0097171D01*
X0082820Y0097045D01*
X0082967Y0096915D01*
X0083111Y0096781D01*
X0083252Y0096644D01*
X0083389Y0096503D01*
X0083523Y0096359D01*
X0083653Y0096212D01*
X0083779Y0096062D01*
X0083902Y0095909D01*
X0084021Y0095753D01*
X0084136Y0095593D01*
X0084247Y0095432D01*
X0084354Y0095267D01*
X0084457Y0095100D01*
X0084556Y0094930D01*
X0084650Y0094758D01*
X0084741Y0094584D01*
X0084827Y0094407D01*
X0084909Y0094229D01*
X0084986Y0094048D01*
X0085059Y0093866D01*
X0085127Y0093682D01*
X0085191Y0093496D01*
X0085251Y0093309D01*
X0085305Y0093121D01*
X0085355Y0092931D01*
X0085401Y0092740D01*
X0085441Y0092548D01*
X0085477Y0092355D01*
X0085508Y0092161D01*
X0085535Y0091966D01*
X0085556Y0091771D01*
X0085573Y0091576D01*
X0085585Y0091380D01*
X0085593Y0091183D01*
X0085595Y0090987D01*
X0085593Y0090791D01*
X0085585Y0090594D01*
X0085573Y0090398D01*
X0085556Y0090203D01*
X0085535Y0090008D01*
X0085508Y0089813D01*
X0085477Y0089619D01*
X0085441Y0089426D01*
X0085401Y0089234D01*
X0085355Y0089043D01*
X0085305Y0088853D01*
X0085251Y0088665D01*
X0085191Y0088478D01*
X0085127Y0088292D01*
X0085059Y0088108D01*
X0084986Y0087926D01*
X0084909Y0087745D01*
X0084827Y0087567D01*
X0084741Y0087390D01*
X0084650Y0087216D01*
X0084556Y0087044D01*
X0084457Y0086874D01*
X0084354Y0086707D01*
X0084247Y0086542D01*
X0084136Y0086381D01*
X0084021Y0086221D01*
X0083902Y0086065D01*
X0083779Y0085912D01*
X0083653Y0085762D01*
X0083523Y0085615D01*
X0083389Y0085471D01*
X0083252Y0085330D01*
X0083111Y0085193D01*
X0082967Y0085059D01*
X0082820Y0084929D01*
X0082670Y0084803D01*
X0082517Y0084680D01*
X0082361Y0084561D01*
X0082201Y0084446D01*
X0082040Y0084335D01*
X0081875Y0084228D01*
X0081708Y0084125D01*
X0081538Y0084026D01*
X0081366Y0083932D01*
X0081192Y0083841D01*
X0081015Y0083755D01*
X0080837Y0083673D01*
X0080656Y0083596D01*
X0080474Y0083523D01*
X0080290Y0083455D01*
X0080104Y0083391D01*
X0079917Y0083331D01*
X0079729Y0083277D01*
X0079539Y0083227D01*
X0079348Y0083181D01*
X0079156Y0083141D01*
X0078963Y0083105D01*
X0078769Y0083074D01*
X0078574Y0083047D01*
X0078379Y0083026D01*
X0078184Y0083009D01*
X0077988Y0082997D01*
X0077791Y0082989D01*
X0077595Y0082987D01*
X0077399Y0082989D01*
X0077202Y0082997D01*
X0077006Y0083009D01*
X0076811Y0083026D01*
X0076616Y0083047D01*
X0076421Y0083074D01*
X0076227Y0083105D01*
X0076034Y0083141D01*
X0075842Y0083181D01*
X0075651Y0083227D01*
X0075461Y0083277D01*
X0075273Y0083331D01*
X0075086Y0083391D01*
X0074900Y0083455D01*
X0074716Y0083523D01*
X0074534Y0083596D01*
X0074353Y0083673D01*
X0074175Y0083755D01*
X0073998Y0083841D01*
X0073824Y0083932D01*
X0073652Y0084026D01*
X0073482Y0084125D01*
X0073315Y0084228D01*
X0073150Y0084335D01*
X0072989Y0084446D01*
X0072829Y0084561D01*
X0072673Y0084680D01*
X0072520Y0084803D01*
X0072370Y0084929D01*
X0072223Y0085059D01*
X0072079Y0085193D01*
X0071938Y0085330D01*
X0071801Y0085471D01*
X0071667Y0085615D01*
X0071537Y0085762D01*
X0071411Y0085912D01*
X0071288Y0086065D01*
X0071169Y0086221D01*
X0071054Y0086381D01*
X0070943Y0086542D01*
X0070836Y0086707D01*
X0070733Y0086874D01*
X0070634Y0087044D01*
X0070540Y0087216D01*
X0070449Y0087390D01*
X0070363Y0087567D01*
X0070281Y0087745D01*
X0070204Y0087926D01*
X0070131Y0088108D01*
X0070063Y0088292D01*
X0069999Y0088478D01*
X0069939Y0088665D01*
X0069885Y0088853D01*
X0069835Y0089043D01*
X0069789Y0089234D01*
X0069749Y0089426D01*
X0069713Y0089619D01*
X0069682Y0089813D01*
X0069655Y0090008D01*
X0069634Y0090203D01*
X0069617Y0090398D01*
X0069605Y0090594D01*
X0069597Y0090791D01*
X0069595Y0090987D01*
X0068611Y0092692D02*
X0068611Y0088422D01*
X0066476Y0086287D01*
X0064341Y0088422D01*
X0064341Y0092692D01*
X0062165Y0091625D02*
X0061098Y0092692D01*
X0058963Y0092692D01*
X0057895Y0091625D01*
X0057895Y0090557D01*
X0058963Y0089489D01*
X0062165Y0089489D01*
X0062165Y0087354D02*
X0062165Y0091625D01*
X0062165Y0087354D02*
X0061098Y0086287D01*
X0058963Y0086287D01*
X0057895Y0087354D01*
X0098595Y0056487D02*
X0100595Y0056487D01*
X0099595Y0055487D02*
X0099595Y0057487D01*
X0094595Y0050987D02*
X0094597Y0051183D01*
X0094605Y0051380D01*
X0094617Y0051576D01*
X0094634Y0051771D01*
X0094655Y0051966D01*
X0094682Y0052161D01*
X0094713Y0052355D01*
X0094749Y0052548D01*
X0094789Y0052740D01*
X0094835Y0052931D01*
X0094885Y0053121D01*
X0094939Y0053309D01*
X0094999Y0053496D01*
X0095063Y0053682D01*
X0095131Y0053866D01*
X0095204Y0054048D01*
X0095281Y0054229D01*
X0095363Y0054407D01*
X0095449Y0054584D01*
X0095540Y0054758D01*
X0095634Y0054930D01*
X0095733Y0055100D01*
X0095836Y0055267D01*
X0095943Y0055432D01*
X0096054Y0055593D01*
X0096169Y0055753D01*
X0096288Y0055909D01*
X0096411Y0056062D01*
X0096537Y0056212D01*
X0096667Y0056359D01*
X0096801Y0056503D01*
X0096938Y0056644D01*
X0097079Y0056781D01*
X0097223Y0056915D01*
X0097370Y0057045D01*
X0097520Y0057171D01*
X0097673Y0057294D01*
X0097829Y0057413D01*
X0097989Y0057528D01*
X0098150Y0057639D01*
X0098315Y0057746D01*
X0098482Y0057849D01*
X0098652Y0057948D01*
X0098824Y0058042D01*
X0098998Y0058133D01*
X0099175Y0058219D01*
X0099353Y0058301D01*
X0099534Y0058378D01*
X0099716Y0058451D01*
X0099900Y0058519D01*
X0100086Y0058583D01*
X0100273Y0058643D01*
X0100461Y0058697D01*
X0100651Y0058747D01*
X0100842Y0058793D01*
X0101034Y0058833D01*
X0101227Y0058869D01*
X0101421Y0058900D01*
X0101616Y0058927D01*
X0101811Y0058948D01*
X0102006Y0058965D01*
X0102202Y0058977D01*
X0102399Y0058985D01*
X0102595Y0058987D01*
X0102791Y0058985D01*
X0102988Y0058977D01*
X0103184Y0058965D01*
X0103379Y0058948D01*
X0103574Y0058927D01*
X0103769Y0058900D01*
X0103963Y0058869D01*
X0104156Y0058833D01*
X0104348Y0058793D01*
X0104539Y0058747D01*
X0104729Y0058697D01*
X0104917Y0058643D01*
X0105104Y0058583D01*
X0105290Y0058519D01*
X0105474Y0058451D01*
X0105656Y0058378D01*
X0105837Y0058301D01*
X0106015Y0058219D01*
X0106192Y0058133D01*
X0106366Y0058042D01*
X0106538Y0057948D01*
X0106708Y0057849D01*
X0106875Y0057746D01*
X0107040Y0057639D01*
X0107201Y0057528D01*
X0107361Y0057413D01*
X0107517Y0057294D01*
X0107670Y0057171D01*
X0107820Y0057045D01*
X0107967Y0056915D01*
X0108111Y0056781D01*
X0108252Y0056644D01*
X0108389Y0056503D01*
X0108523Y0056359D01*
X0108653Y0056212D01*
X0108779Y0056062D01*
X0108902Y0055909D01*
X0109021Y0055753D01*
X0109136Y0055593D01*
X0109247Y0055432D01*
X0109354Y0055267D01*
X0109457Y0055100D01*
X0109556Y0054930D01*
X0109650Y0054758D01*
X0109741Y0054584D01*
X0109827Y0054407D01*
X0109909Y0054229D01*
X0109986Y0054048D01*
X0110059Y0053866D01*
X0110127Y0053682D01*
X0110191Y0053496D01*
X0110251Y0053309D01*
X0110305Y0053121D01*
X0110355Y0052931D01*
X0110401Y0052740D01*
X0110441Y0052548D01*
X0110477Y0052355D01*
X0110508Y0052161D01*
X0110535Y0051966D01*
X0110556Y0051771D01*
X0110573Y0051576D01*
X0110585Y0051380D01*
X0110593Y0051183D01*
X0110595Y0050987D01*
X0110593Y0050791D01*
X0110585Y0050594D01*
X0110573Y0050398D01*
X0110556Y0050203D01*
X0110535Y0050008D01*
X0110508Y0049813D01*
X0110477Y0049619D01*
X0110441Y0049426D01*
X0110401Y0049234D01*
X0110355Y0049043D01*
X0110305Y0048853D01*
X0110251Y0048665D01*
X0110191Y0048478D01*
X0110127Y0048292D01*
X0110059Y0048108D01*
X0109986Y0047926D01*
X0109909Y0047745D01*
X0109827Y0047567D01*
X0109741Y0047390D01*
X0109650Y0047216D01*
X0109556Y0047044D01*
X0109457Y0046874D01*
X0109354Y0046707D01*
X0109247Y0046542D01*
X0109136Y0046381D01*
X0109021Y0046221D01*
X0108902Y0046065D01*
X0108779Y0045912D01*
X0108653Y0045762D01*
X0108523Y0045615D01*
X0108389Y0045471D01*
X0108252Y0045330D01*
X0108111Y0045193D01*
X0107967Y0045059D01*
X0107820Y0044929D01*
X0107670Y0044803D01*
X0107517Y0044680D01*
X0107361Y0044561D01*
X0107201Y0044446D01*
X0107040Y0044335D01*
X0106875Y0044228D01*
X0106708Y0044125D01*
X0106538Y0044026D01*
X0106366Y0043932D01*
X0106192Y0043841D01*
X0106015Y0043755D01*
X0105837Y0043673D01*
X0105656Y0043596D01*
X0105474Y0043523D01*
X0105290Y0043455D01*
X0105104Y0043391D01*
X0104917Y0043331D01*
X0104729Y0043277D01*
X0104539Y0043227D01*
X0104348Y0043181D01*
X0104156Y0043141D01*
X0103963Y0043105D01*
X0103769Y0043074D01*
X0103574Y0043047D01*
X0103379Y0043026D01*
X0103184Y0043009D01*
X0102988Y0042997D01*
X0102791Y0042989D01*
X0102595Y0042987D01*
X0102399Y0042989D01*
X0102202Y0042997D01*
X0102006Y0043009D01*
X0101811Y0043026D01*
X0101616Y0043047D01*
X0101421Y0043074D01*
X0101227Y0043105D01*
X0101034Y0043141D01*
X0100842Y0043181D01*
X0100651Y0043227D01*
X0100461Y0043277D01*
X0100273Y0043331D01*
X0100086Y0043391D01*
X0099900Y0043455D01*
X0099716Y0043523D01*
X0099534Y0043596D01*
X0099353Y0043673D01*
X0099175Y0043755D01*
X0098998Y0043841D01*
X0098824Y0043932D01*
X0098652Y0044026D01*
X0098482Y0044125D01*
X0098315Y0044228D01*
X0098150Y0044335D01*
X0097989Y0044446D01*
X0097829Y0044561D01*
X0097673Y0044680D01*
X0097520Y0044803D01*
X0097370Y0044929D01*
X0097223Y0045059D01*
X0097079Y0045193D01*
X0096938Y0045330D01*
X0096801Y0045471D01*
X0096667Y0045615D01*
X0096537Y0045762D01*
X0096411Y0045912D01*
X0096288Y0046065D01*
X0096169Y0046221D01*
X0096054Y0046381D01*
X0095943Y0046542D01*
X0095836Y0046707D01*
X0095733Y0046874D01*
X0095634Y0047044D01*
X0095540Y0047216D01*
X0095449Y0047390D01*
X0095363Y0047567D01*
X0095281Y0047745D01*
X0095204Y0047926D01*
X0095131Y0048108D01*
X0095063Y0048292D01*
X0094999Y0048478D01*
X0094939Y0048665D01*
X0094885Y0048853D01*
X0094835Y0049043D01*
X0094789Y0049234D01*
X0094749Y0049426D01*
X0094713Y0049619D01*
X0094682Y0049813D01*
X0094655Y0050008D01*
X0094634Y0050203D01*
X0094617Y0050398D01*
X0094605Y0050594D01*
X0094597Y0050791D01*
X0094595Y0050987D01*
D11*
X0049346Y0036237D02*
X0047845Y0037738D01*
X0047845Y0040740D01*
X0050848Y0040740D02*
X0050848Y0037738D01*
X0049346Y0036237D01*
X0052449Y0036237D02*
X0053950Y0036237D01*
X0053200Y0036237D02*
X0053200Y0039239D01*
X0052449Y0039239D01*
X0053200Y0040740D02*
X0053200Y0041491D01*
X0055518Y0039239D02*
X0057770Y0039239D01*
X0058521Y0038489D01*
X0058521Y0036237D01*
X0060122Y0035486D02*
X0063125Y0035486D01*
X0064726Y0036987D02*
X0065477Y0036237D01*
X0066978Y0036237D01*
X0067729Y0036987D01*
X0067729Y0038489D01*
X0066978Y0039239D01*
X0066227Y0039239D01*
X0064726Y0038489D01*
X0064726Y0040740D01*
X0067729Y0040740D01*
X0069330Y0040740D02*
X0069330Y0037738D01*
X0070831Y0036237D01*
X0072333Y0037738D01*
X0072333Y0040740D01*
X0055518Y0039239D02*
X0055518Y0036237D01*
X0082595Y0080987D02*
X0082598Y0081232D01*
X0082607Y0081478D01*
X0082622Y0081723D01*
X0082643Y0081967D01*
X0082670Y0082211D01*
X0082703Y0082454D01*
X0082742Y0082697D01*
X0082787Y0082938D01*
X0082838Y0083178D01*
X0082895Y0083417D01*
X0082957Y0083654D01*
X0083026Y0083890D01*
X0083100Y0084124D01*
X0083180Y0084356D01*
X0083265Y0084586D01*
X0083356Y0084814D01*
X0083453Y0085039D01*
X0083555Y0085263D01*
X0083663Y0085483D01*
X0083776Y0085701D01*
X0083894Y0085916D01*
X0084018Y0086128D01*
X0084146Y0086337D01*
X0084280Y0086543D01*
X0084419Y0086745D01*
X0084563Y0086944D01*
X0084712Y0087139D01*
X0084865Y0087331D01*
X0085023Y0087519D01*
X0085185Y0087703D01*
X0085353Y0087882D01*
X0085524Y0088058D01*
X0085700Y0088229D01*
X0085879Y0088397D01*
X0086063Y0088559D01*
X0086251Y0088717D01*
X0086443Y0088870D01*
X0086638Y0089019D01*
X0086837Y0089163D01*
X0087039Y0089302D01*
X0087245Y0089436D01*
X0087454Y0089564D01*
X0087666Y0089688D01*
X0087881Y0089806D01*
X0088099Y0089919D01*
X0088319Y0090027D01*
X0088543Y0090129D01*
X0088768Y0090226D01*
X0088996Y0090317D01*
X0089226Y0090402D01*
X0089458Y0090482D01*
X0089692Y0090556D01*
X0089928Y0090625D01*
X0090165Y0090687D01*
X0090404Y0090744D01*
X0090644Y0090795D01*
X0090885Y0090840D01*
X0091128Y0090879D01*
X0091371Y0090912D01*
X0091615Y0090939D01*
X0091859Y0090960D01*
X0092104Y0090975D01*
X0092350Y0090984D01*
X0092595Y0090987D01*
X0092840Y0090984D01*
X0093086Y0090975D01*
X0093331Y0090960D01*
X0093575Y0090939D01*
X0093819Y0090912D01*
X0094062Y0090879D01*
X0094305Y0090840D01*
X0094546Y0090795D01*
X0094786Y0090744D01*
X0095025Y0090687D01*
X0095262Y0090625D01*
X0095498Y0090556D01*
X0095732Y0090482D01*
X0095964Y0090402D01*
X0096194Y0090317D01*
X0096422Y0090226D01*
X0096647Y0090129D01*
X0096871Y0090027D01*
X0097091Y0089919D01*
X0097309Y0089806D01*
X0097524Y0089688D01*
X0097736Y0089564D01*
X0097945Y0089436D01*
X0098151Y0089302D01*
X0098353Y0089163D01*
X0098552Y0089019D01*
X0098747Y0088870D01*
X0098939Y0088717D01*
X0099127Y0088559D01*
X0099311Y0088397D01*
X0099490Y0088229D01*
X0099666Y0088058D01*
X0099837Y0087882D01*
X0100005Y0087703D01*
X0100167Y0087519D01*
X0100325Y0087331D01*
X0100478Y0087139D01*
X0100627Y0086944D01*
X0100771Y0086745D01*
X0100910Y0086543D01*
X0101044Y0086337D01*
X0101172Y0086128D01*
X0101296Y0085916D01*
X0101414Y0085701D01*
X0101527Y0085483D01*
X0101635Y0085263D01*
X0101737Y0085039D01*
X0101834Y0084814D01*
X0101925Y0084586D01*
X0102010Y0084356D01*
X0102090Y0084124D01*
X0102164Y0083890D01*
X0102233Y0083654D01*
X0102295Y0083417D01*
X0102352Y0083178D01*
X0102403Y0082938D01*
X0102448Y0082697D01*
X0102487Y0082454D01*
X0102520Y0082211D01*
X0102547Y0081967D01*
X0102568Y0081723D01*
X0102583Y0081478D01*
X0102592Y0081232D01*
X0102595Y0080987D01*
X0102592Y0080742D01*
X0102583Y0080496D01*
X0102568Y0080251D01*
X0102547Y0080007D01*
X0102520Y0079763D01*
X0102487Y0079520D01*
X0102448Y0079277D01*
X0102403Y0079036D01*
X0102352Y0078796D01*
X0102295Y0078557D01*
X0102233Y0078320D01*
X0102164Y0078084D01*
X0102090Y0077850D01*
X0102010Y0077618D01*
X0101925Y0077388D01*
X0101834Y0077160D01*
X0101737Y0076935D01*
X0101635Y0076711D01*
X0101527Y0076491D01*
X0101414Y0076273D01*
X0101296Y0076058D01*
X0101172Y0075846D01*
X0101044Y0075637D01*
X0100910Y0075431D01*
X0100771Y0075229D01*
X0100627Y0075030D01*
X0100478Y0074835D01*
X0100325Y0074643D01*
X0100167Y0074455D01*
X0100005Y0074271D01*
X0099837Y0074092D01*
X0099666Y0073916D01*
X0099490Y0073745D01*
X0099311Y0073577D01*
X0099127Y0073415D01*
X0098939Y0073257D01*
X0098747Y0073104D01*
X0098552Y0072955D01*
X0098353Y0072811D01*
X0098151Y0072672D01*
X0097945Y0072538D01*
X0097736Y0072410D01*
X0097524Y0072286D01*
X0097309Y0072168D01*
X0097091Y0072055D01*
X0096871Y0071947D01*
X0096647Y0071845D01*
X0096422Y0071748D01*
X0096194Y0071657D01*
X0095964Y0071572D01*
X0095732Y0071492D01*
X0095498Y0071418D01*
X0095262Y0071349D01*
X0095025Y0071287D01*
X0094786Y0071230D01*
X0094546Y0071179D01*
X0094305Y0071134D01*
X0094062Y0071095D01*
X0093819Y0071062D01*
X0093575Y0071035D01*
X0093331Y0071014D01*
X0093086Y0070999D01*
X0092840Y0070990D01*
X0092595Y0070987D01*
X0092350Y0070990D01*
X0092104Y0070999D01*
X0091859Y0071014D01*
X0091615Y0071035D01*
X0091371Y0071062D01*
X0091128Y0071095D01*
X0090885Y0071134D01*
X0090644Y0071179D01*
X0090404Y0071230D01*
X0090165Y0071287D01*
X0089928Y0071349D01*
X0089692Y0071418D01*
X0089458Y0071492D01*
X0089226Y0071572D01*
X0088996Y0071657D01*
X0088768Y0071748D01*
X0088543Y0071845D01*
X0088319Y0071947D01*
X0088099Y0072055D01*
X0087881Y0072168D01*
X0087666Y0072286D01*
X0087454Y0072410D01*
X0087245Y0072538D01*
X0087039Y0072672D01*
X0086837Y0072811D01*
X0086638Y0072955D01*
X0086443Y0073104D01*
X0086251Y0073257D01*
X0086063Y0073415D01*
X0085879Y0073577D01*
X0085700Y0073745D01*
X0085524Y0073916D01*
X0085353Y0074092D01*
X0085185Y0074271D01*
X0085023Y0074455D01*
X0084865Y0074643D01*
X0084712Y0074835D01*
X0084563Y0075030D01*
X0084419Y0075229D01*
X0084280Y0075431D01*
X0084146Y0075637D01*
X0084018Y0075846D01*
X0083894Y0076058D01*
X0083776Y0076273D01*
X0083663Y0076491D01*
X0083555Y0076711D01*
X0083453Y0076935D01*
X0083356Y0077160D01*
X0083265Y0077388D01*
X0083180Y0077618D01*
X0083100Y0077850D01*
X0083026Y0078084D01*
X0082957Y0078320D01*
X0082895Y0078557D01*
X0082838Y0078796D01*
X0082787Y0079036D01*
X0082742Y0079277D01*
X0082703Y0079520D01*
X0082670Y0079763D01*
X0082643Y0080007D01*
X0082622Y0080251D01*
X0082607Y0080496D01*
X0082598Y0080742D01*
X0082595Y0080987D01*
X0067744Y0085489D02*
X0064741Y0085489D01*
X0066993Y0087740D01*
X0066993Y0083237D01*
X0063140Y0083987D02*
X0062389Y0083237D01*
X0060888Y0083237D01*
X0060137Y0083987D01*
X0060137Y0086990D01*
X0060888Y0087740D01*
X0062389Y0087740D01*
X0063140Y0086990D01*
X0107845Y0102738D02*
X0109346Y0101237D01*
X0110848Y0102738D01*
X0110848Y0105740D01*
X0112449Y0103489D02*
X0112449Y0101987D01*
X0113200Y0101237D01*
X0114701Y0101237D01*
X0115452Y0101987D01*
X0115452Y0103489D01*
X0114701Y0104239D01*
X0113200Y0104239D01*
X0112449Y0103489D01*
X0107845Y0102738D02*
X0107845Y0105740D01*
X0117053Y0104239D02*
X0117053Y0101987D01*
X0117804Y0101237D01*
X0120056Y0101237D01*
X0120056Y0104239D01*
X0121657Y0104239D02*
X0123158Y0104239D01*
X0122408Y0104990D02*
X0122408Y0101987D01*
X0123158Y0101237D01*
X0118201Y0058740D02*
X0116700Y0058740D01*
X0115949Y0057990D01*
X0114348Y0057990D02*
X0113597Y0058740D01*
X0112096Y0058740D01*
X0111345Y0057990D01*
X0111345Y0054987D01*
X0112096Y0054237D01*
X0113597Y0054237D01*
X0114348Y0054987D01*
X0115949Y0054987D02*
X0116700Y0054237D01*
X0118201Y0054237D01*
X0118952Y0054987D01*
X0118952Y0055738D01*
X0118201Y0056489D01*
X0117450Y0056489D01*
X0118201Y0056489D02*
X0118952Y0057239D01*
X0118952Y0057990D01*
X0118201Y0058740D01*
D12*
X0104157Y0058052D02*
X0104157Y0061121D01*
X0104157Y0059587D02*
X0099553Y0059587D01*
X0101087Y0058052D01*
X0104157Y0056517D02*
X0104157Y0053448D01*
X0099553Y0053448D01*
X0100097Y0050791D02*
X0098562Y0050791D01*
X0097795Y0050023D01*
X0097795Y0046954D01*
X0098562Y0046187D01*
X0100097Y0046187D01*
X0100864Y0046954D01*
X0102399Y0046187D02*
X0105468Y0046187D01*
X0103934Y0046187D02*
X0103934Y0050791D01*
X0102399Y0049256D01*
X0100864Y0050023D02*
X0100097Y0050791D01*
X0090988Y0068687D02*
X0087919Y0068687D01*
X0090988Y0071756D01*
X0090988Y0072523D01*
X0090221Y0073291D01*
X0088686Y0073291D01*
X0087919Y0072523D01*
X0084849Y0073291D02*
X0084849Y0068687D01*
X0083315Y0068687D02*
X0086384Y0068687D01*
X0083315Y0071756D02*
X0084849Y0073291D01*
X0080468Y0076187D02*
X0077399Y0076187D01*
X0075864Y0076187D02*
X0074330Y0077721D01*
X0075097Y0077721D02*
X0072795Y0077721D01*
X0071805Y0078687D02*
X0070270Y0078687D01*
X0069503Y0079454D01*
X0070270Y0080989D02*
X0069503Y0081756D01*
X0069503Y0082523D01*
X0070270Y0083291D01*
X0071805Y0083291D01*
X0072572Y0082523D01*
X0071805Y0080989D02*
X0070270Y0080989D01*
X0071805Y0080989D02*
X0072572Y0080221D01*
X0072572Y0079454D01*
X0071805Y0078687D01*
X0074107Y0078687D02*
X0077176Y0078687D01*
X0077399Y0079256D02*
X0078934Y0080791D01*
X0078934Y0076187D01*
X0078711Y0078687D02*
X0081780Y0078687D01*
X0083315Y0079454D02*
X0084082Y0078687D01*
X0085617Y0078687D01*
X0086384Y0079454D01*
X0086384Y0082523D01*
X0085617Y0083291D01*
X0084082Y0083291D01*
X0083315Y0082523D01*
X0083315Y0081756D01*
X0084082Y0080989D01*
X0086384Y0080989D01*
X0078711Y0083291D02*
X0078711Y0078687D01*
X0075864Y0078489D02*
X0075097Y0077721D01*
X0075864Y0078489D02*
X0075864Y0080023D01*
X0075097Y0080791D01*
X0072795Y0080791D01*
X0072795Y0076187D01*
X0074107Y0078687D02*
X0074107Y0083291D01*
X0077176Y0083291D01*
X0075642Y0080989D02*
X0074107Y0080989D01*
X0067968Y0077919D02*
X0064899Y0077919D01*
X0063364Y0078687D02*
X0061830Y0080221D01*
X0062597Y0080221D02*
X0060295Y0080221D01*
X0060093Y0080048D02*
X0060093Y0076979D01*
X0059326Y0075444D02*
X0058559Y0075444D01*
X0057791Y0074677D01*
X0057791Y0073142D01*
X0058559Y0072375D01*
X0058559Y0070840D02*
X0060093Y0070840D01*
X0060861Y0070073D01*
X0060861Y0067771D01*
X0060295Y0068687D02*
X0060295Y0073291D01*
X0062597Y0073291D01*
X0063364Y0072523D01*
X0063364Y0070989D01*
X0062597Y0070221D01*
X0060295Y0070221D01*
X0060861Y0069306D02*
X0062395Y0070840D01*
X0061830Y0070221D02*
X0063364Y0068687D01*
X0062395Y0067771D02*
X0057791Y0067771D01*
X0057791Y0070073D01*
X0058559Y0070840D01*
X0062395Y0072375D02*
X0059326Y0075444D01*
X0062395Y0075444D02*
X0062395Y0072375D01*
X0064899Y0067919D02*
X0067968Y0067919D01*
X0069503Y0069454D02*
X0070270Y0068687D01*
X0071805Y0068687D01*
X0072572Y0069454D01*
X0072572Y0070221D01*
X0071805Y0070989D01*
X0070270Y0070989D01*
X0069503Y0071756D01*
X0069503Y0072523D01*
X0070270Y0073291D01*
X0071805Y0073291D01*
X0072572Y0072523D01*
X0074107Y0073291D02*
X0074107Y0068687D01*
X0077176Y0068687D01*
X0078711Y0068687D02*
X0081780Y0068687D01*
X0078711Y0068687D02*
X0078711Y0073291D01*
X0077176Y0073291D02*
X0074107Y0073291D01*
X0074107Y0070989D02*
X0075642Y0070989D01*
X0063364Y0080989D02*
X0062597Y0080221D01*
X0063364Y0080989D02*
X0063364Y0082523D01*
X0062597Y0083291D01*
X0060295Y0083291D01*
X0060295Y0078687D01*
X0059326Y0081583D02*
X0060093Y0082350D01*
X0060093Y0084652D01*
X0058559Y0084652D02*
X0057791Y0083885D01*
X0057791Y0082350D01*
X0058559Y0081583D01*
X0059326Y0081583D01*
X0061628Y0081583D02*
X0062395Y0082350D01*
X0062395Y0083885D01*
X0061628Y0084652D01*
X0058559Y0084652D01*
X0047395Y0077672D02*
X0047395Y0074602D01*
X0044326Y0077672D01*
X0043559Y0077672D01*
X0042791Y0076904D01*
X0042791Y0075370D01*
X0043559Y0074602D01*
X0042791Y0071533D02*
X0047395Y0071533D01*
X0047395Y0069998D02*
X0047395Y0073068D01*
X0044326Y0069998D02*
X0042791Y0071533D01*
X0045093Y0068464D02*
X0045093Y0065394D01*
X0044326Y0063860D02*
X0043559Y0063860D01*
X0042791Y0063092D01*
X0042791Y0061558D01*
X0043559Y0060791D01*
X0043559Y0059256D02*
X0045093Y0059256D01*
X0045861Y0058489D01*
X0045861Y0056187D01*
X0047395Y0056187D02*
X0042791Y0056187D01*
X0042791Y0058489D01*
X0043559Y0059256D01*
X0045861Y0057721D02*
X0047395Y0059256D01*
X0047395Y0060791D02*
X0044326Y0063860D01*
X0047395Y0063860D02*
X0047395Y0060791D01*
X0061830Y0043291D02*
X0063364Y0043291D01*
X0062597Y0043291D02*
X0062597Y0039454D01*
X0061830Y0038687D01*
X0061062Y0038687D01*
X0060295Y0039454D01*
X0064899Y0038687D02*
X0067968Y0038687D01*
X0066434Y0038687D02*
X0066434Y0043291D01*
X0064899Y0041756D01*
X0074355Y0091187D02*
X0075889Y0091187D01*
X0076657Y0091954D01*
X0078191Y0091187D02*
X0081260Y0094256D01*
X0081260Y0095023D01*
X0080493Y0095791D01*
X0078959Y0095791D01*
X0078191Y0095023D01*
X0076657Y0095023D02*
X0075889Y0095791D01*
X0074355Y0095791D01*
X0073587Y0095023D01*
X0073587Y0091954D01*
X0074355Y0091187D01*
X0078191Y0091187D02*
X0081260Y0091187D01*
X0106087Y0099454D02*
X0106855Y0098687D01*
X0107622Y0098687D01*
X0108389Y0099454D01*
X0108389Y0103291D01*
X0107622Y0103291D02*
X0109157Y0103291D01*
X0110691Y0102523D02*
X0111459Y0103291D01*
X0112993Y0103291D01*
X0113760Y0102523D01*
X0113760Y0101756D01*
X0110691Y0098687D01*
X0113760Y0098687D01*
D13*
X0114662Y0106420D02*
X0114662Y0116361D01*
X0116040Y0116361D01*
X0116040Y0125613D01*
X0114662Y0125613D01*
X0114662Y0135554D01*
X0060528Y0135554D01*
X0060528Y0125613D01*
X0059150Y0125613D01*
X0059150Y0116361D01*
X0060528Y0116361D01*
X0060528Y0116459D01*
X0060528Y0116361D02*
X0060528Y0106420D01*
X0114662Y0106420D01*
X0116138Y0116361D02*
X0124701Y0116361D01*
X0124701Y0125613D01*
X0116138Y0125613D01*
X0111844Y0120987D02*
X0111844Y0132737D01*
X0088344Y0132737D01*
X0088344Y0120987D01*
X0088346Y0120987D01*
X0088346Y0120736D01*
X0086846Y0120736D02*
X0086846Y0120987D01*
X0086844Y0120987D02*
X0086844Y0132737D01*
X0085344Y0131237D01*
X0085344Y0120987D01*
X0085346Y0120987D02*
X0085346Y0120736D01*
X0089846Y0120736D02*
X0089846Y0120987D01*
X0089844Y0120987D02*
X0089844Y0131237D01*
X0088344Y0132737D01*
X0086844Y0132737D02*
X0063345Y0132737D01*
X0063345Y0120987D01*
X0064845Y0120987D02*
X0064845Y0131237D01*
X0063345Y0132737D01*
X0064845Y0131237D02*
X0085344Y0131237D01*
X0085528Y0135849D02*
X0085528Y0140573D01*
X0089662Y0140573D01*
X0089662Y0135849D01*
X0089844Y0131237D02*
X0110344Y0131237D01*
X0111844Y0132737D01*
X0110344Y0131237D02*
X0110344Y0120987D01*
X0110346Y0120736D02*
X0110336Y0120485D01*
X0110321Y0120234D01*
X0110299Y0119983D01*
X0110271Y0119733D01*
X0110237Y0119484D01*
X0110197Y0119236D01*
X0110151Y0118989D01*
X0110098Y0118743D01*
X0110040Y0118498D01*
X0109976Y0118255D01*
X0109906Y0118013D01*
X0109829Y0117774D01*
X0109747Y0117536D01*
X0109660Y0117300D01*
X0109566Y0117067D01*
X0109467Y0116835D01*
X0109362Y0116607D01*
X0109252Y0116381D01*
X0109136Y0116158D01*
X0109014Y0115937D01*
X0108887Y0115720D01*
X0108755Y0115506D01*
X0108618Y0115295D01*
X0108476Y0115088D01*
X0108328Y0114884D01*
X0108176Y0114684D01*
X0108019Y0114488D01*
X0107857Y0114296D01*
X0107690Y0114107D01*
X0107519Y0113923D01*
X0107343Y0113743D01*
X0107163Y0113568D01*
X0106979Y0113396D01*
X0106790Y0113230D01*
X0106598Y0113068D01*
X0106401Y0112911D01*
X0106201Y0112759D01*
X0105997Y0112611D01*
X0105790Y0112469D01*
X0105579Y0112332D01*
X0105365Y0112200D01*
X0105147Y0112074D01*
X0104927Y0111952D01*
X0104704Y0111837D01*
X0104478Y0111726D01*
X0104249Y0111622D01*
X0104018Y0111523D01*
X0103784Y0111429D01*
X0103548Y0111342D01*
X0103311Y0111260D01*
X0103071Y0111184D01*
X0102829Y0111114D01*
X0102586Y0111050D01*
X0102341Y0110992D01*
X0102095Y0110940D01*
X0101848Y0110894D01*
X0101600Y0110854D01*
X0101350Y0110820D01*
X0101100Y0110792D01*
X0100850Y0110771D01*
X0100599Y0110755D01*
X0100347Y0110746D01*
X0100096Y0110743D01*
X0099845Y0110746D01*
X0099593Y0110755D01*
X0099342Y0110771D01*
X0099092Y0110792D01*
X0098842Y0110820D01*
X0098592Y0110854D01*
X0098344Y0110894D01*
X0098097Y0110940D01*
X0097851Y0110992D01*
X0097606Y0111050D01*
X0097363Y0111114D01*
X0097121Y0111184D01*
X0096881Y0111260D01*
X0096644Y0111342D01*
X0096408Y0111429D01*
X0096174Y0111523D01*
X0095943Y0111622D01*
X0095714Y0111726D01*
X0095488Y0111837D01*
X0095265Y0111952D01*
X0095045Y0112074D01*
X0094827Y0112200D01*
X0094613Y0112332D01*
X0094402Y0112469D01*
X0094195Y0112611D01*
X0093991Y0112759D01*
X0093791Y0112911D01*
X0093594Y0113068D01*
X0093402Y0113230D01*
X0093213Y0113396D01*
X0093029Y0113568D01*
X0092849Y0113743D01*
X0092673Y0113923D01*
X0092502Y0114107D01*
X0092335Y0114296D01*
X0092173Y0114488D01*
X0092016Y0114684D01*
X0091864Y0114884D01*
X0091716Y0115088D01*
X0091574Y0115295D01*
X0091437Y0115506D01*
X0091305Y0115720D01*
X0091178Y0115937D01*
X0091056Y0116158D01*
X0090940Y0116381D01*
X0090830Y0116607D01*
X0090725Y0116835D01*
X0090626Y0117067D01*
X0090532Y0117300D01*
X0090445Y0117536D01*
X0090363Y0117774D01*
X0090286Y0118013D01*
X0090216Y0118255D01*
X0090152Y0118498D01*
X0090094Y0118743D01*
X0090041Y0118989D01*
X0089995Y0119236D01*
X0089955Y0119484D01*
X0089921Y0119733D01*
X0089893Y0119983D01*
X0089871Y0120234D01*
X0089856Y0120485D01*
X0089846Y0120736D01*
X0088346Y0120736D02*
X0088356Y0120449D01*
X0088373Y0120164D01*
X0088397Y0119878D01*
X0088428Y0119593D01*
X0088466Y0119309D01*
X0088511Y0119026D01*
X0088563Y0118745D01*
X0088621Y0118464D01*
X0088687Y0118185D01*
X0088759Y0117908D01*
X0088838Y0117633D01*
X0088923Y0117359D01*
X0089016Y0117088D01*
X0089114Y0116819D01*
X0089220Y0116553D01*
X0089331Y0116289D01*
X0089450Y0116028D01*
X0089574Y0115770D01*
X0089705Y0115515D01*
X0089842Y0115264D01*
X0089985Y0115016D01*
X0090134Y0114771D01*
X0090289Y0114530D01*
X0090450Y0114293D01*
X0090616Y0114060D01*
X0090788Y0113831D01*
X0090966Y0113606D01*
X0091149Y0113386D01*
X0091337Y0113170D01*
X0091531Y0112959D01*
X0091730Y0112753D01*
X0091933Y0112551D01*
X0092142Y0112355D01*
X0092355Y0112163D01*
X0092573Y0111977D01*
X0092795Y0111797D01*
X0093022Y0111622D01*
X0093253Y0111452D01*
X0093487Y0111288D01*
X0093726Y0111130D01*
X0093969Y0110977D01*
X0094215Y0110831D01*
X0094465Y0110691D01*
X0094718Y0110557D01*
X0094974Y0110429D01*
X0095234Y0110307D01*
X0095496Y0110192D01*
X0095761Y0110083D01*
X0096028Y0109980D01*
X0096298Y0109885D01*
X0096570Y0109795D01*
X0096845Y0109713D01*
X0097121Y0109637D01*
X0097399Y0109568D01*
X0097678Y0109505D01*
X0097959Y0109450D01*
X0098242Y0109401D01*
X0098525Y0109359D01*
X0098810Y0109325D01*
X0099095Y0109297D01*
X0099380Y0109276D01*
X0099666Y0109262D01*
X0099953Y0109255D01*
X0100239Y0109255D01*
X0100526Y0109262D01*
X0100812Y0109276D01*
X0101097Y0109297D01*
X0101382Y0109325D01*
X0101667Y0109359D01*
X0101950Y0109401D01*
X0102233Y0109450D01*
X0102514Y0109505D01*
X0102793Y0109568D01*
X0103071Y0109637D01*
X0103347Y0109713D01*
X0103622Y0109795D01*
X0103894Y0109885D01*
X0104164Y0109980D01*
X0104431Y0110083D01*
X0104696Y0110192D01*
X0104958Y0110307D01*
X0105218Y0110429D01*
X0105474Y0110557D01*
X0105727Y0110691D01*
X0105977Y0110831D01*
X0106223Y0110977D01*
X0106466Y0111130D01*
X0106705Y0111288D01*
X0106939Y0111452D01*
X0107170Y0111622D01*
X0107397Y0111797D01*
X0107619Y0111977D01*
X0107837Y0112163D01*
X0108050Y0112355D01*
X0108259Y0112551D01*
X0108462Y0112753D01*
X0108661Y0112959D01*
X0108855Y0113170D01*
X0109043Y0113386D01*
X0109226Y0113606D01*
X0109404Y0113831D01*
X0109576Y0114060D01*
X0109742Y0114293D01*
X0109903Y0114530D01*
X0110058Y0114771D01*
X0110207Y0115016D01*
X0110350Y0115264D01*
X0110487Y0115515D01*
X0110618Y0115770D01*
X0110742Y0116028D01*
X0110861Y0116289D01*
X0110972Y0116553D01*
X0111078Y0116819D01*
X0111176Y0117088D01*
X0111269Y0117359D01*
X0111354Y0117633D01*
X0111433Y0117908D01*
X0111505Y0118185D01*
X0111571Y0118464D01*
X0111629Y0118745D01*
X0111681Y0119026D01*
X0111726Y0119309D01*
X0111764Y0119593D01*
X0111795Y0119878D01*
X0111819Y0120164D01*
X0111836Y0120449D01*
X0111846Y0120736D01*
X0114662Y0135652D02*
X0114662Y0140573D01*
X0110528Y0140573D01*
X0110528Y0135947D01*
X0086846Y0120736D02*
X0086836Y0120450D01*
X0086819Y0120164D01*
X0086795Y0119878D01*
X0086764Y0119594D01*
X0086726Y0119310D01*
X0086681Y0119027D01*
X0086629Y0118745D01*
X0086571Y0118465D01*
X0086505Y0118186D01*
X0086433Y0117909D01*
X0086354Y0117633D01*
X0086269Y0117360D01*
X0086177Y0117089D01*
X0086078Y0116820D01*
X0085972Y0116553D01*
X0085861Y0116289D01*
X0085742Y0116029D01*
X0085618Y0115771D01*
X0085487Y0115516D01*
X0085350Y0115264D01*
X0085207Y0115016D01*
X0085058Y0114771D01*
X0084903Y0114530D01*
X0084743Y0114293D01*
X0084576Y0114060D01*
X0084404Y0113831D01*
X0084226Y0113606D01*
X0084043Y0113386D01*
X0083855Y0113170D01*
X0083661Y0112959D01*
X0083463Y0112753D01*
X0083259Y0112551D01*
X0083050Y0112355D01*
X0082837Y0112164D01*
X0082619Y0111977D01*
X0082397Y0111797D01*
X0082170Y0111622D01*
X0081940Y0111452D01*
X0081705Y0111288D01*
X0081466Y0111130D01*
X0081223Y0110978D01*
X0080977Y0110831D01*
X0080727Y0110691D01*
X0080474Y0110557D01*
X0080218Y0110429D01*
X0079959Y0110307D01*
X0079696Y0110192D01*
X0079431Y0110083D01*
X0079164Y0109980D01*
X0078894Y0109885D01*
X0078622Y0109795D01*
X0078347Y0109713D01*
X0078071Y0109637D01*
X0077793Y0109568D01*
X0077514Y0109505D01*
X0077233Y0109450D01*
X0076950Y0109401D01*
X0076667Y0109359D01*
X0076383Y0109325D01*
X0076097Y0109297D01*
X0075812Y0109276D01*
X0075526Y0109262D01*
X0075239Y0109255D01*
X0074953Y0109255D01*
X0074666Y0109262D01*
X0074380Y0109276D01*
X0074095Y0109297D01*
X0073809Y0109325D01*
X0073525Y0109359D01*
X0073242Y0109401D01*
X0072959Y0109450D01*
X0072678Y0109505D01*
X0072399Y0109568D01*
X0072121Y0109637D01*
X0071845Y0109713D01*
X0071570Y0109795D01*
X0071298Y0109885D01*
X0071028Y0109980D01*
X0070761Y0110083D01*
X0070496Y0110192D01*
X0070233Y0110307D01*
X0069974Y0110429D01*
X0069718Y0110557D01*
X0069465Y0110691D01*
X0069215Y0110831D01*
X0068969Y0110978D01*
X0068726Y0111130D01*
X0068487Y0111288D01*
X0068252Y0111452D01*
X0068022Y0111622D01*
X0067795Y0111797D01*
X0067573Y0111977D01*
X0067355Y0112164D01*
X0067142Y0112355D01*
X0066933Y0112551D01*
X0066729Y0112753D01*
X0066531Y0112959D01*
X0066337Y0113170D01*
X0066149Y0113386D01*
X0065966Y0113606D01*
X0065788Y0113831D01*
X0065616Y0114060D01*
X0065449Y0114293D01*
X0065289Y0114530D01*
X0065134Y0114771D01*
X0064985Y0115016D01*
X0064842Y0115264D01*
X0064705Y0115516D01*
X0064574Y0115771D01*
X0064450Y0116029D01*
X0064331Y0116289D01*
X0064220Y0116553D01*
X0064114Y0116820D01*
X0064015Y0117089D01*
X0063923Y0117360D01*
X0063838Y0117633D01*
X0063759Y0117909D01*
X0063687Y0118186D01*
X0063621Y0118465D01*
X0063563Y0118745D01*
X0063511Y0119027D01*
X0063466Y0119310D01*
X0063428Y0119594D01*
X0063397Y0119878D01*
X0063373Y0120164D01*
X0063356Y0120450D01*
X0063346Y0120736D01*
X0059052Y0116361D02*
X0050489Y0116361D01*
X0050489Y0125613D01*
X0059052Y0125613D01*
X0060528Y0135750D02*
X0060528Y0140573D01*
X0064662Y0140573D01*
X0064662Y0136046D01*
X0064846Y0120737D02*
X0064856Y0120485D01*
X0064872Y0120235D01*
X0064894Y0119984D01*
X0064922Y0119734D01*
X0064956Y0119485D01*
X0064996Y0119237D01*
X0065043Y0118990D01*
X0065095Y0118744D01*
X0065154Y0118500D01*
X0065218Y0118257D01*
X0065288Y0118015D01*
X0065364Y0117776D01*
X0065447Y0117538D01*
X0065534Y0117303D01*
X0065628Y0117069D01*
X0065727Y0116838D01*
X0065832Y0116610D01*
X0065943Y0116384D01*
X0066059Y0116161D01*
X0066180Y0115941D01*
X0066307Y0115724D01*
X0066439Y0115510D01*
X0066576Y0115299D01*
X0066719Y0115092D01*
X0066866Y0114889D01*
X0067019Y0114689D01*
X0067176Y0114493D01*
X0067338Y0114300D01*
X0067505Y0114112D01*
X0067676Y0113928D01*
X0067852Y0113748D01*
X0068032Y0113573D01*
X0068216Y0113402D01*
X0068404Y0113236D01*
X0068597Y0113074D01*
X0068793Y0112917D01*
X0068993Y0112765D01*
X0069197Y0112618D01*
X0069405Y0112476D01*
X0069616Y0112339D01*
X0069830Y0112207D01*
X0070047Y0112080D01*
X0070267Y0111959D01*
X0070490Y0111844D01*
X0070716Y0111733D01*
X0070945Y0111629D01*
X0071176Y0111530D01*
X0071409Y0111437D01*
X0071645Y0111349D01*
X0071883Y0111267D01*
X0072123Y0111192D01*
X0072364Y0111122D01*
X0072607Y0111058D01*
X0072852Y0111000D01*
X0073098Y0110948D01*
X0073345Y0110902D01*
X0073593Y0110862D01*
X0073842Y0110828D01*
X0074092Y0110800D01*
X0074342Y0110779D01*
X0074593Y0110763D01*
X0074845Y0110754D01*
X0075096Y0110751D01*
X0075347Y0110754D01*
X0075599Y0110763D01*
X0075850Y0110779D01*
X0076100Y0110800D01*
X0076350Y0110828D01*
X0076599Y0110862D01*
X0076847Y0110902D01*
X0077094Y0110948D01*
X0077340Y0111000D01*
X0077585Y0111058D01*
X0077828Y0111122D01*
X0078069Y0111192D01*
X0078309Y0111267D01*
X0078547Y0111349D01*
X0078783Y0111437D01*
X0079016Y0111530D01*
X0079247Y0111629D01*
X0079476Y0111733D01*
X0079702Y0111844D01*
X0079925Y0111959D01*
X0080145Y0112080D01*
X0080362Y0112207D01*
X0080576Y0112339D01*
X0080787Y0112476D01*
X0080995Y0112618D01*
X0081199Y0112765D01*
X0081399Y0112917D01*
X0081595Y0113074D01*
X0081788Y0113236D01*
X0081976Y0113402D01*
X0082160Y0113573D01*
X0082340Y0113748D01*
X0082516Y0113928D01*
X0082687Y0114112D01*
X0082854Y0114300D01*
X0083016Y0114493D01*
X0083173Y0114689D01*
X0083326Y0114889D01*
X0083473Y0115092D01*
X0083616Y0115299D01*
X0083753Y0115510D01*
X0083885Y0115724D01*
X0084012Y0115941D01*
X0084133Y0116161D01*
X0084249Y0116384D01*
X0084360Y0116610D01*
X0084465Y0116838D01*
X0084564Y0117069D01*
X0084658Y0117303D01*
X0084745Y0117538D01*
X0084828Y0117776D01*
X0084904Y0118015D01*
X0084974Y0118257D01*
X0085038Y0118500D01*
X0085097Y0118744D01*
X0085149Y0118990D01*
X0085196Y0119237D01*
X0085236Y0119485D01*
X0085270Y0119734D01*
X0085298Y0119984D01*
X0085320Y0120235D01*
X0085336Y0120485D01*
X0085346Y0120737D01*
X0105272Y0070987D02*
X0105277Y0071412D01*
X0105293Y0071837D01*
X0105319Y0072261D01*
X0105355Y0072685D01*
X0105402Y0073108D01*
X0105459Y0073529D01*
X0105527Y0073949D01*
X0105605Y0074367D01*
X0105693Y0074782D01*
X0105791Y0075196D01*
X0105900Y0075607D01*
X0106018Y0076016D01*
X0106146Y0076421D01*
X0106285Y0076823D01*
X0106433Y0077221D01*
X0106591Y0077616D01*
X0106758Y0078007D01*
X0106935Y0078394D01*
X0107122Y0078776D01*
X0107317Y0079153D01*
X0107522Y0079525D01*
X0107737Y0079893D01*
X0107960Y0080255D01*
X0108191Y0080611D01*
X0108432Y0080962D01*
X0108681Y0081306D01*
X0108938Y0081645D01*
X0109204Y0081977D01*
X0109478Y0082302D01*
X0109760Y0082620D01*
X0110049Y0082932D01*
X0110346Y0083236D01*
X0110650Y0083533D01*
X0110962Y0083822D01*
X0111280Y0084104D01*
X0111605Y0084378D01*
X0111937Y0084644D01*
X0112276Y0084901D01*
X0112620Y0085150D01*
X0112971Y0085391D01*
X0113327Y0085622D01*
X0113689Y0085845D01*
X0114057Y0086060D01*
X0114429Y0086265D01*
X0114806Y0086460D01*
X0115188Y0086647D01*
X0115575Y0086824D01*
X0115966Y0086991D01*
X0116361Y0087149D01*
X0116759Y0087297D01*
X0117161Y0087436D01*
X0117566Y0087564D01*
X0117975Y0087682D01*
X0118386Y0087791D01*
X0118800Y0087889D01*
X0119215Y0087977D01*
X0119633Y0088055D01*
X0120053Y0088123D01*
X0120474Y0088180D01*
X0120897Y0088227D01*
X0121321Y0088263D01*
X0121745Y0088289D01*
X0122170Y0088305D01*
X0122595Y0088310D01*
X0123020Y0088305D01*
X0123445Y0088289D01*
X0123869Y0088263D01*
X0124293Y0088227D01*
X0124716Y0088180D01*
X0125137Y0088123D01*
X0125557Y0088055D01*
X0125975Y0087977D01*
X0126390Y0087889D01*
X0126804Y0087791D01*
X0127215Y0087682D01*
X0127624Y0087564D01*
X0128029Y0087436D01*
X0128431Y0087297D01*
X0128829Y0087149D01*
X0129224Y0086991D01*
X0129615Y0086824D01*
X0130002Y0086647D01*
X0130384Y0086460D01*
X0130761Y0086265D01*
X0131133Y0086060D01*
X0131501Y0085845D01*
X0131863Y0085622D01*
X0132219Y0085391D01*
X0132570Y0085150D01*
X0132914Y0084901D01*
X0133253Y0084644D01*
X0133585Y0084378D01*
X0133910Y0084104D01*
X0134228Y0083822D01*
X0134540Y0083533D01*
X0134844Y0083236D01*
X0135141Y0082932D01*
X0135430Y0082620D01*
X0135712Y0082302D01*
X0135986Y0081977D01*
X0136252Y0081645D01*
X0136509Y0081306D01*
X0136758Y0080962D01*
X0136999Y0080611D01*
X0137230Y0080255D01*
X0137453Y0079893D01*
X0137668Y0079525D01*
X0137873Y0079153D01*
X0138068Y0078776D01*
X0138255Y0078394D01*
X0138432Y0078007D01*
X0138599Y0077616D01*
X0138757Y0077221D01*
X0138905Y0076823D01*
X0139044Y0076421D01*
X0139172Y0076016D01*
X0139290Y0075607D01*
X0139399Y0075196D01*
X0139497Y0074782D01*
X0139585Y0074367D01*
X0139663Y0073949D01*
X0139731Y0073529D01*
X0139788Y0073108D01*
X0139835Y0072685D01*
X0139871Y0072261D01*
X0139897Y0071837D01*
X0139913Y0071412D01*
X0139918Y0070987D01*
X0139913Y0070562D01*
X0139897Y0070137D01*
X0139871Y0069713D01*
X0139835Y0069289D01*
X0139788Y0068866D01*
X0139731Y0068445D01*
X0139663Y0068025D01*
X0139585Y0067607D01*
X0139497Y0067192D01*
X0139399Y0066778D01*
X0139290Y0066367D01*
X0139172Y0065958D01*
X0139044Y0065553D01*
X0138905Y0065151D01*
X0138757Y0064753D01*
X0138599Y0064358D01*
X0138432Y0063967D01*
X0138255Y0063580D01*
X0138068Y0063198D01*
X0137873Y0062821D01*
X0137668Y0062449D01*
X0137453Y0062081D01*
X0137230Y0061719D01*
X0136999Y0061363D01*
X0136758Y0061012D01*
X0136509Y0060668D01*
X0136252Y0060329D01*
X0135986Y0059997D01*
X0135712Y0059672D01*
X0135430Y0059354D01*
X0135141Y0059042D01*
X0134844Y0058738D01*
X0134540Y0058441D01*
X0134228Y0058152D01*
X0133910Y0057870D01*
X0133585Y0057596D01*
X0133253Y0057330D01*
X0132914Y0057073D01*
X0132570Y0056824D01*
X0132219Y0056583D01*
X0131863Y0056352D01*
X0131501Y0056129D01*
X0131133Y0055914D01*
X0130761Y0055709D01*
X0130384Y0055514D01*
X0130002Y0055327D01*
X0129615Y0055150D01*
X0129224Y0054983D01*
X0128829Y0054825D01*
X0128431Y0054677D01*
X0128029Y0054538D01*
X0127624Y0054410D01*
X0127215Y0054292D01*
X0126804Y0054183D01*
X0126390Y0054085D01*
X0125975Y0053997D01*
X0125557Y0053919D01*
X0125137Y0053851D01*
X0124716Y0053794D01*
X0124293Y0053747D01*
X0123869Y0053711D01*
X0123445Y0053685D01*
X0123020Y0053669D01*
X0122595Y0053664D01*
X0122170Y0053669D01*
X0121745Y0053685D01*
X0121321Y0053711D01*
X0120897Y0053747D01*
X0120474Y0053794D01*
X0120053Y0053851D01*
X0119633Y0053919D01*
X0119215Y0053997D01*
X0118800Y0054085D01*
X0118386Y0054183D01*
X0117975Y0054292D01*
X0117566Y0054410D01*
X0117161Y0054538D01*
X0116759Y0054677D01*
X0116361Y0054825D01*
X0115966Y0054983D01*
X0115575Y0055150D01*
X0115188Y0055327D01*
X0114806Y0055514D01*
X0114429Y0055709D01*
X0114057Y0055914D01*
X0113689Y0056129D01*
X0113327Y0056352D01*
X0112971Y0056583D01*
X0112620Y0056824D01*
X0112276Y0057073D01*
X0111937Y0057330D01*
X0111605Y0057596D01*
X0111280Y0057870D01*
X0110962Y0058152D01*
X0110650Y0058441D01*
X0110346Y0058738D01*
X0110049Y0059042D01*
X0109760Y0059354D01*
X0109478Y0059672D01*
X0109204Y0059997D01*
X0108938Y0060329D01*
X0108681Y0060668D01*
X0108432Y0061012D01*
X0108191Y0061363D01*
X0107960Y0061719D01*
X0107737Y0062081D01*
X0107522Y0062449D01*
X0107317Y0062821D01*
X0107122Y0063198D01*
X0106935Y0063580D01*
X0106758Y0063967D01*
X0106591Y0064358D01*
X0106433Y0064753D01*
X0106285Y0065151D01*
X0106146Y0065553D01*
X0106018Y0065958D01*
X0105900Y0066367D01*
X0105791Y0066778D01*
X0105693Y0067192D01*
X0105605Y0067607D01*
X0105527Y0068025D01*
X0105459Y0068445D01*
X0105402Y0068866D01*
X0105355Y0069289D01*
X0105319Y0069713D01*
X0105293Y0070137D01*
X0105277Y0070562D01*
X0105272Y0070987D01*
X0114662Y0035554D02*
X0114662Y0025613D01*
X0116040Y0025613D01*
X0116040Y0016361D01*
X0114662Y0016361D01*
X0114662Y0006420D01*
X0060528Y0006420D01*
X0060528Y0016361D01*
X0059150Y0016361D01*
X0059150Y0025613D01*
X0060528Y0025613D01*
X0060528Y0035554D01*
X0114662Y0035554D01*
X0114662Y0025613D02*
X0114662Y0025514D01*
X0116138Y0025613D02*
X0124701Y0025613D01*
X0124701Y0016361D01*
X0116138Y0016361D01*
X0111846Y0020987D02*
X0111846Y0009236D01*
X0110346Y0010736D01*
X0110346Y0020987D01*
X0110346Y0010736D02*
X0089846Y0010736D01*
X0088346Y0009236D01*
X0088346Y0020987D01*
X0088344Y0020987D02*
X0088344Y0021237D01*
X0086844Y0021237D02*
X0086844Y0020987D01*
X0086846Y0020987D01*
X0086846Y0009236D01*
X0085346Y0010736D01*
X0085346Y0020987D01*
X0085344Y0020987D02*
X0085344Y0021237D01*
X0089844Y0021237D02*
X0089844Y0020987D01*
X0089846Y0020987D02*
X0089846Y0010736D01*
X0088346Y0009236D02*
X0111846Y0009236D01*
X0110528Y0005928D02*
X0110528Y0001400D01*
X0114662Y0001400D01*
X0114662Y0006223D01*
X0111844Y0021237D02*
X0111834Y0021523D01*
X0111817Y0021809D01*
X0111793Y0022095D01*
X0111762Y0022379D01*
X0111724Y0022663D01*
X0111679Y0022946D01*
X0111627Y0023228D01*
X0111569Y0023508D01*
X0111503Y0023787D01*
X0111431Y0024064D01*
X0111352Y0024340D01*
X0111267Y0024613D01*
X0111175Y0024884D01*
X0111076Y0025153D01*
X0110970Y0025420D01*
X0110859Y0025684D01*
X0110740Y0025944D01*
X0110616Y0026202D01*
X0110485Y0026457D01*
X0110348Y0026709D01*
X0110205Y0026957D01*
X0110056Y0027202D01*
X0109901Y0027443D01*
X0109741Y0027680D01*
X0109574Y0027913D01*
X0109402Y0028142D01*
X0109224Y0028367D01*
X0109041Y0028587D01*
X0108853Y0028803D01*
X0108659Y0029014D01*
X0108461Y0029220D01*
X0108257Y0029422D01*
X0108048Y0029618D01*
X0107835Y0029809D01*
X0107617Y0029996D01*
X0107395Y0030176D01*
X0107168Y0030351D01*
X0106938Y0030521D01*
X0106703Y0030685D01*
X0106464Y0030843D01*
X0106221Y0030995D01*
X0105975Y0031142D01*
X0105725Y0031282D01*
X0105472Y0031416D01*
X0105216Y0031544D01*
X0104957Y0031666D01*
X0104694Y0031781D01*
X0104429Y0031890D01*
X0104162Y0031993D01*
X0103892Y0032088D01*
X0103620Y0032178D01*
X0103345Y0032260D01*
X0103069Y0032336D01*
X0102791Y0032405D01*
X0102512Y0032468D01*
X0102231Y0032523D01*
X0101948Y0032572D01*
X0101665Y0032614D01*
X0101381Y0032648D01*
X0101095Y0032676D01*
X0100810Y0032697D01*
X0100524Y0032711D01*
X0100237Y0032718D01*
X0099951Y0032718D01*
X0099664Y0032711D01*
X0099378Y0032697D01*
X0099093Y0032676D01*
X0098807Y0032648D01*
X0098523Y0032614D01*
X0098240Y0032572D01*
X0097957Y0032523D01*
X0097676Y0032468D01*
X0097397Y0032405D01*
X0097119Y0032336D01*
X0096843Y0032260D01*
X0096568Y0032178D01*
X0096296Y0032088D01*
X0096026Y0031993D01*
X0095759Y0031890D01*
X0095494Y0031781D01*
X0095231Y0031666D01*
X0094972Y0031544D01*
X0094716Y0031416D01*
X0094463Y0031282D01*
X0094213Y0031142D01*
X0093967Y0030995D01*
X0093724Y0030843D01*
X0093485Y0030685D01*
X0093250Y0030521D01*
X0093020Y0030351D01*
X0092793Y0030176D01*
X0092571Y0029996D01*
X0092353Y0029809D01*
X0092140Y0029618D01*
X0091931Y0029422D01*
X0091727Y0029220D01*
X0091529Y0029014D01*
X0091335Y0028803D01*
X0091147Y0028587D01*
X0090964Y0028367D01*
X0090786Y0028142D01*
X0090614Y0027913D01*
X0090447Y0027680D01*
X0090287Y0027443D01*
X0090132Y0027202D01*
X0089983Y0026957D01*
X0089840Y0026709D01*
X0089703Y0026457D01*
X0089572Y0026202D01*
X0089448Y0025944D01*
X0089329Y0025684D01*
X0089218Y0025420D01*
X0089112Y0025153D01*
X0089013Y0024884D01*
X0088921Y0024613D01*
X0088836Y0024340D01*
X0088757Y0024064D01*
X0088685Y0023787D01*
X0088619Y0023508D01*
X0088561Y0023228D01*
X0088509Y0022946D01*
X0088464Y0022663D01*
X0088426Y0022379D01*
X0088395Y0022095D01*
X0088371Y0021809D01*
X0088354Y0021523D01*
X0088344Y0021237D01*
X0085346Y0010736D02*
X0064846Y0010736D01*
X0063346Y0009236D01*
X0086846Y0009236D01*
X0085528Y0006124D02*
X0085528Y0001400D01*
X0089662Y0001400D01*
X0089662Y0006124D01*
X0089844Y0021237D02*
X0089854Y0021489D01*
X0089870Y0021739D01*
X0089892Y0021990D01*
X0089920Y0022240D01*
X0089954Y0022489D01*
X0089994Y0022737D01*
X0090041Y0022984D01*
X0090093Y0023230D01*
X0090152Y0023474D01*
X0090216Y0023717D01*
X0090286Y0023959D01*
X0090362Y0024198D01*
X0090445Y0024436D01*
X0090532Y0024671D01*
X0090626Y0024905D01*
X0090725Y0025136D01*
X0090830Y0025364D01*
X0090941Y0025590D01*
X0091057Y0025813D01*
X0091178Y0026033D01*
X0091305Y0026250D01*
X0091437Y0026464D01*
X0091574Y0026675D01*
X0091717Y0026882D01*
X0091864Y0027085D01*
X0092017Y0027285D01*
X0092174Y0027481D01*
X0092336Y0027674D01*
X0092503Y0027862D01*
X0092674Y0028046D01*
X0092850Y0028226D01*
X0093030Y0028401D01*
X0093214Y0028572D01*
X0093402Y0028738D01*
X0093595Y0028900D01*
X0093791Y0029057D01*
X0093991Y0029209D01*
X0094195Y0029356D01*
X0094403Y0029498D01*
X0094614Y0029635D01*
X0094828Y0029767D01*
X0095045Y0029894D01*
X0095265Y0030015D01*
X0095488Y0030130D01*
X0095714Y0030241D01*
X0095943Y0030345D01*
X0096174Y0030444D01*
X0096407Y0030537D01*
X0096643Y0030625D01*
X0096881Y0030707D01*
X0097121Y0030782D01*
X0097362Y0030852D01*
X0097605Y0030916D01*
X0097850Y0030974D01*
X0098096Y0031026D01*
X0098343Y0031072D01*
X0098591Y0031112D01*
X0098840Y0031146D01*
X0099090Y0031174D01*
X0099340Y0031195D01*
X0099591Y0031211D01*
X0099843Y0031220D01*
X0100094Y0031223D01*
X0100345Y0031220D01*
X0100597Y0031211D01*
X0100848Y0031195D01*
X0101098Y0031174D01*
X0101348Y0031146D01*
X0101597Y0031112D01*
X0101845Y0031072D01*
X0102092Y0031026D01*
X0102338Y0030974D01*
X0102583Y0030916D01*
X0102826Y0030852D01*
X0103067Y0030782D01*
X0103307Y0030707D01*
X0103545Y0030625D01*
X0103781Y0030537D01*
X0104014Y0030444D01*
X0104245Y0030345D01*
X0104474Y0030241D01*
X0104700Y0030130D01*
X0104923Y0030015D01*
X0105143Y0029894D01*
X0105360Y0029767D01*
X0105574Y0029635D01*
X0105785Y0029498D01*
X0105993Y0029356D01*
X0106197Y0029209D01*
X0106397Y0029057D01*
X0106593Y0028900D01*
X0106786Y0028738D01*
X0106974Y0028572D01*
X0107158Y0028401D01*
X0107338Y0028226D01*
X0107514Y0028046D01*
X0107685Y0027862D01*
X0107852Y0027674D01*
X0108014Y0027481D01*
X0108171Y0027285D01*
X0108324Y0027085D01*
X0108471Y0026882D01*
X0108614Y0026675D01*
X0108751Y0026464D01*
X0108883Y0026250D01*
X0109010Y0026033D01*
X0109131Y0025813D01*
X0109247Y0025590D01*
X0109358Y0025364D01*
X0109463Y0025136D01*
X0109562Y0024905D01*
X0109656Y0024671D01*
X0109743Y0024436D01*
X0109826Y0024198D01*
X0109902Y0023959D01*
X0109972Y0023717D01*
X0110036Y0023474D01*
X0110095Y0023230D01*
X0110147Y0022984D01*
X0110194Y0022737D01*
X0110234Y0022489D01*
X0110268Y0022240D01*
X0110296Y0021990D01*
X0110318Y0021739D01*
X0110334Y0021489D01*
X0110344Y0021237D01*
X0085345Y0021237D02*
X0085335Y0021488D01*
X0085320Y0021739D01*
X0085298Y0021990D01*
X0085270Y0022240D01*
X0085236Y0022489D01*
X0085196Y0022737D01*
X0085150Y0022984D01*
X0085097Y0023230D01*
X0085039Y0023475D01*
X0084975Y0023718D01*
X0084905Y0023960D01*
X0084828Y0024199D01*
X0084746Y0024437D01*
X0084659Y0024673D01*
X0084565Y0024906D01*
X0084466Y0025138D01*
X0084361Y0025366D01*
X0084251Y0025592D01*
X0084135Y0025815D01*
X0084013Y0026036D01*
X0083886Y0026253D01*
X0083754Y0026467D01*
X0083617Y0026678D01*
X0083475Y0026885D01*
X0083327Y0027089D01*
X0083175Y0027289D01*
X0083018Y0027485D01*
X0082856Y0027677D01*
X0082689Y0027866D01*
X0082518Y0028050D01*
X0082342Y0028230D01*
X0082162Y0028405D01*
X0081978Y0028577D01*
X0081789Y0028743D01*
X0081597Y0028905D01*
X0081400Y0029062D01*
X0081200Y0029214D01*
X0080996Y0029362D01*
X0080789Y0029504D01*
X0080578Y0029641D01*
X0080364Y0029773D01*
X0080146Y0029899D01*
X0079926Y0030021D01*
X0079703Y0030136D01*
X0079477Y0030247D01*
X0079248Y0030351D01*
X0079017Y0030450D01*
X0078783Y0030544D01*
X0078547Y0030631D01*
X0078310Y0030713D01*
X0078070Y0030789D01*
X0077828Y0030859D01*
X0077585Y0030923D01*
X0077340Y0030981D01*
X0077094Y0031033D01*
X0076847Y0031079D01*
X0076599Y0031119D01*
X0076349Y0031153D01*
X0076099Y0031181D01*
X0075849Y0031202D01*
X0075598Y0031218D01*
X0075346Y0031227D01*
X0075095Y0031230D01*
X0074844Y0031227D01*
X0074592Y0031218D01*
X0074341Y0031202D01*
X0074091Y0031181D01*
X0073841Y0031153D01*
X0073591Y0031119D01*
X0073343Y0031079D01*
X0073096Y0031033D01*
X0072850Y0030981D01*
X0072605Y0030923D01*
X0072362Y0030859D01*
X0072120Y0030789D01*
X0071880Y0030713D01*
X0071643Y0030631D01*
X0071407Y0030544D01*
X0071173Y0030450D01*
X0070942Y0030351D01*
X0070713Y0030247D01*
X0070487Y0030136D01*
X0070264Y0030021D01*
X0070044Y0029899D01*
X0069826Y0029773D01*
X0069612Y0029641D01*
X0069401Y0029504D01*
X0069194Y0029362D01*
X0068990Y0029214D01*
X0068790Y0029062D01*
X0068593Y0028905D01*
X0068401Y0028743D01*
X0068212Y0028577D01*
X0068028Y0028405D01*
X0067848Y0028230D01*
X0067672Y0028050D01*
X0067501Y0027866D01*
X0067334Y0027677D01*
X0067172Y0027485D01*
X0067015Y0027289D01*
X0066863Y0027089D01*
X0066715Y0026885D01*
X0066573Y0026678D01*
X0066436Y0026467D01*
X0066304Y0026253D01*
X0066177Y0026036D01*
X0066055Y0025815D01*
X0065939Y0025592D01*
X0065829Y0025366D01*
X0065724Y0025138D01*
X0065625Y0024906D01*
X0065531Y0024673D01*
X0065444Y0024437D01*
X0065362Y0024199D01*
X0065285Y0023960D01*
X0065215Y0023718D01*
X0065151Y0023475D01*
X0065093Y0023230D01*
X0065040Y0022984D01*
X0064994Y0022737D01*
X0064954Y0022489D01*
X0064920Y0022240D01*
X0064892Y0021990D01*
X0064870Y0021739D01*
X0064855Y0021488D01*
X0064845Y0021237D01*
X0064846Y0020987D02*
X0064846Y0010736D01*
X0063346Y0009236D02*
X0063346Y0020987D01*
X0059052Y0025613D02*
X0050489Y0025613D01*
X0050489Y0016361D01*
X0059052Y0016361D01*
X0060528Y0006321D02*
X0060528Y0001400D01*
X0064662Y0001400D01*
X0064662Y0006026D01*
X0063345Y0021237D02*
X0063355Y0021524D01*
X0063372Y0021809D01*
X0063396Y0022095D01*
X0063427Y0022380D01*
X0063465Y0022664D01*
X0063510Y0022947D01*
X0063562Y0023228D01*
X0063620Y0023509D01*
X0063686Y0023788D01*
X0063758Y0024065D01*
X0063837Y0024340D01*
X0063922Y0024614D01*
X0064015Y0024885D01*
X0064113Y0025154D01*
X0064219Y0025420D01*
X0064330Y0025684D01*
X0064449Y0025945D01*
X0064573Y0026203D01*
X0064704Y0026458D01*
X0064841Y0026709D01*
X0064984Y0026957D01*
X0065133Y0027202D01*
X0065288Y0027443D01*
X0065449Y0027680D01*
X0065615Y0027913D01*
X0065787Y0028142D01*
X0065965Y0028367D01*
X0066148Y0028587D01*
X0066336Y0028803D01*
X0066530Y0029014D01*
X0066729Y0029220D01*
X0066932Y0029422D01*
X0067141Y0029618D01*
X0067354Y0029810D01*
X0067572Y0029996D01*
X0067794Y0030176D01*
X0068021Y0030351D01*
X0068252Y0030521D01*
X0068486Y0030685D01*
X0068725Y0030843D01*
X0068968Y0030996D01*
X0069214Y0031142D01*
X0069464Y0031282D01*
X0069717Y0031416D01*
X0069973Y0031544D01*
X0070233Y0031666D01*
X0070495Y0031781D01*
X0070760Y0031890D01*
X0071027Y0031993D01*
X0071297Y0032088D01*
X0071569Y0032178D01*
X0071844Y0032260D01*
X0072120Y0032336D01*
X0072398Y0032405D01*
X0072677Y0032468D01*
X0072958Y0032523D01*
X0073241Y0032572D01*
X0073524Y0032614D01*
X0073809Y0032648D01*
X0074094Y0032676D01*
X0074379Y0032697D01*
X0074665Y0032711D01*
X0074952Y0032718D01*
X0075238Y0032718D01*
X0075525Y0032711D01*
X0075811Y0032697D01*
X0076096Y0032676D01*
X0076381Y0032648D01*
X0076666Y0032614D01*
X0076949Y0032572D01*
X0077232Y0032523D01*
X0077513Y0032468D01*
X0077792Y0032405D01*
X0078070Y0032336D01*
X0078346Y0032260D01*
X0078621Y0032178D01*
X0078893Y0032088D01*
X0079163Y0031993D01*
X0079430Y0031890D01*
X0079695Y0031781D01*
X0079957Y0031666D01*
X0080217Y0031544D01*
X0080473Y0031416D01*
X0080726Y0031282D01*
X0080976Y0031142D01*
X0081222Y0030996D01*
X0081465Y0030843D01*
X0081704Y0030685D01*
X0081938Y0030521D01*
X0082169Y0030351D01*
X0082396Y0030176D01*
X0082618Y0029996D01*
X0082836Y0029810D01*
X0083049Y0029618D01*
X0083258Y0029422D01*
X0083461Y0029220D01*
X0083660Y0029014D01*
X0083854Y0028803D01*
X0084042Y0028587D01*
X0084225Y0028367D01*
X0084403Y0028142D01*
X0084575Y0027913D01*
X0084741Y0027680D01*
X0084902Y0027443D01*
X0085057Y0027202D01*
X0085206Y0026957D01*
X0085349Y0026709D01*
X0085486Y0026458D01*
X0085617Y0026203D01*
X0085741Y0025945D01*
X0085860Y0025684D01*
X0085971Y0025420D01*
X0086077Y0025154D01*
X0086175Y0024885D01*
X0086268Y0024614D01*
X0086353Y0024340D01*
X0086432Y0024065D01*
X0086504Y0023788D01*
X0086570Y0023509D01*
X0086628Y0023228D01*
X0086680Y0022947D01*
X0086725Y0022664D01*
X0086763Y0022380D01*
X0086794Y0022095D01*
X0086818Y0021809D01*
X0086835Y0021524D01*
X0086845Y0021237D01*
D14*
X0087445Y0031137D02*
X0087445Y0033605D01*
X0087445Y0032371D02*
X0083742Y0032371D01*
X0084976Y0031137D01*
X0109242Y0031754D02*
X0109859Y0031137D01*
X0109242Y0031754D02*
X0109242Y0032988D01*
X0109859Y0033605D01*
X0110476Y0033605D01*
X0112945Y0031137D01*
X0112945Y0033605D01*
X0087745Y0108368D02*
X0087745Y0110837D01*
X0087745Y0109602D02*
X0091448Y0109602D01*
X0090214Y0110837D01*
X0065948Y0110219D02*
X0065948Y0108985D01*
X0065331Y0108368D01*
X0064714Y0108368D01*
X0062245Y0110837D01*
X0062245Y0108368D01*
X0065331Y0110837D02*
X0065948Y0110219D01*
D15*
X0092595Y0095987D02*
X0092595Y0085987D01*
M02*
