G75*
%MOIN*%
%OFA0B0*%
%FSLAX25Y25*%
%IPPOS*%
%LPD*%
%AMOC8*
5,1,8,0,0,1.08239X$1,22.5*
%
%ADD10R,0.06299X0.07087*%
%ADD11OC8,0.04600*%
%ADD12C,0.04600*%
%ADD13C,0.15000*%
%ADD14C,0.05600*%
%ADD15R,0.05118X0.06299*%
%ADD16R,0.06299X0.05118*%
%ADD17R,0.02756X0.03543*%
%ADD18C,0.08600*%
%ADD19C,0.05000*%
%ADD20C,0.16598*%
%ADD21C,0.04156*%
%ADD22C,0.02400*%
%ADD23C,0.03762*%
%ADD24C,0.04000*%
%ADD25C,0.01600*%
%ADD26C,0.04000*%
D10*
X0072083Y0100987D03*
X0083107Y0100987D03*
X0097083Y0040987D03*
X0108107Y0040987D03*
D11*
X0106095Y0050987D03*
X0074095Y0090987D03*
D12*
X0081095Y0090987D03*
X0099095Y0050987D03*
D13*
X0100095Y0020987D03*
X0075095Y0020987D03*
X0075095Y0120987D03*
X0100095Y0120987D03*
D14*
X0122595Y0080829D03*
X0122595Y0061144D03*
D15*
X0081335Y0070987D03*
X0073855Y0070987D03*
D16*
X0052595Y0077246D03*
X0052595Y0084727D03*
X0052595Y0064727D03*
X0052595Y0057246D03*
D17*
X0060036Y0065987D03*
X0065154Y0065987D03*
X0065154Y0075987D03*
X0060036Y0075987D03*
D18*
X0092595Y0080987D03*
X0092595Y0100987D03*
D19*
X0092595Y0080987D02*
X0092595Y0080829D01*
X0122595Y0080829D01*
X0122595Y0061144D02*
X0122595Y0060987D01*
X0102595Y0060987D01*
X0097595Y0055987D01*
X0097595Y0052487D01*
X0099095Y0050987D01*
X0073855Y0070987D02*
X0067595Y0070987D01*
X0072083Y0100987D02*
X0072595Y0101498D01*
D20*
X0047595Y0120987D03*
X0127595Y0120987D03*
X0127595Y0020987D03*
X0047595Y0020987D03*
D21*
X0052595Y0050987D03*
D22*
X0037595Y0010987D02*
X0037595Y0130987D01*
X0083595Y0130987D01*
X0083595Y0112643D01*
X0080329Y0109378D01*
X0079204Y0108252D01*
X0078702Y0107041D01*
X0078371Y0106904D01*
X0077584Y0106116D01*
X0077157Y0105087D01*
X0077157Y0096886D01*
X0077584Y0095857D01*
X0078168Y0095272D01*
X0076772Y0093876D01*
X0075995Y0092001D01*
X0075995Y0089972D01*
X0076535Y0088668D01*
X0076535Y0076936D01*
X0070739Y0076936D01*
X0069710Y0076510D01*
X0069487Y0076287D01*
X0069332Y0076287D01*
X0069332Y0078315D01*
X0068906Y0079344D01*
X0068118Y0080132D01*
X0067089Y0080558D01*
X0063219Y0080558D01*
X0062595Y0080300D01*
X0061971Y0080558D01*
X0058464Y0080558D01*
X0058118Y0081392D01*
X0057331Y0082179D01*
X0056302Y0082605D01*
X0048889Y0082605D01*
X0047859Y0082179D01*
X0047072Y0081392D01*
X0046646Y0080362D01*
X0046646Y0074130D01*
X0047072Y0073101D01*
X0047859Y0072314D01*
X0048889Y0071887D01*
X0056302Y0071887D01*
X0056541Y0071987D01*
X0056927Y0071987D01*
X0057072Y0071841D01*
X0058101Y0071415D01*
X0061154Y0071415D01*
X0061154Y0070558D01*
X0058101Y0070558D01*
X0057072Y0070132D01*
X0056927Y0069987D01*
X0056541Y0069987D01*
X0056302Y0070086D01*
X0048889Y0070086D01*
X0047859Y0069660D01*
X0047072Y0068872D01*
X0046646Y0067843D01*
X0046646Y0061611D01*
X0047072Y0060582D01*
X0047859Y0059794D01*
X0048889Y0059368D01*
X0056302Y0059368D01*
X0057331Y0059794D01*
X0058118Y0060582D01*
X0058464Y0061415D01*
X0061658Y0061415D01*
X0061763Y0061162D01*
X0067795Y0055130D01*
X0067795Y0055032D01*
X0068526Y0053268D01*
X0069876Y0051917D01*
X0071640Y0051187D01*
X0073550Y0051187D01*
X0075314Y0051917D01*
X0076664Y0053268D01*
X0077395Y0055032D01*
X0077395Y0056941D01*
X0076664Y0058706D01*
X0075314Y0060056D01*
X0073550Y0060787D01*
X0073452Y0060787D01*
X0069332Y0064906D01*
X0069332Y0065687D01*
X0069487Y0065687D01*
X0069710Y0065463D01*
X0070739Y0065037D01*
X0076971Y0065037D01*
X0077595Y0065296D01*
X0078219Y0065037D01*
X0084451Y0065037D01*
X0085480Y0065463D01*
X0086268Y0066251D01*
X0086694Y0067280D01*
X0086694Y0074693D01*
X0086268Y0075722D01*
X0086135Y0075855D01*
X0086135Y0078029D01*
X0086576Y0076965D01*
X0088573Y0074968D01*
X0091183Y0073887D01*
X0094007Y0073887D01*
X0096617Y0074968D01*
X0097179Y0075529D01*
X0120757Y0075529D01*
X0121481Y0075229D01*
X0123709Y0075229D01*
X0125767Y0076082D01*
X0127343Y0077657D01*
X0128195Y0079715D01*
X0128195Y0081943D01*
X0127343Y0084001D01*
X0125767Y0085577D01*
X0123709Y0086429D01*
X0121481Y0086429D01*
X0120757Y0086129D01*
X0116595Y0086129D01*
X0116595Y0130987D01*
X0137595Y0130987D01*
X0137595Y0010987D01*
X0116595Y0010987D01*
X0116595Y0026782D01*
X0115986Y0028252D01*
X0103033Y0041206D01*
X0103033Y0042053D01*
X0103095Y0042203D01*
X0103095Y0043794D01*
X0103033Y0043944D01*
X0103033Y0045087D01*
X0102607Y0046116D01*
X0102163Y0046559D01*
X0103588Y0047984D01*
X0104395Y0049932D01*
X0104395Y0052041D01*
X0103588Y0053989D01*
X0103340Y0054237D01*
X0104790Y0055687D01*
X0121137Y0055687D01*
X0121481Y0055544D01*
X0123709Y0055544D01*
X0125767Y0056397D01*
X0127343Y0057972D01*
X0128195Y0060030D01*
X0128195Y0062258D01*
X0127343Y0064316D01*
X0125767Y0065892D01*
X0123709Y0066744D01*
X0121481Y0066744D01*
X0120377Y0066287D01*
X0101541Y0066287D01*
X0099593Y0065480D01*
X0094593Y0060480D01*
X0093102Y0058989D01*
X0092295Y0057041D01*
X0092295Y0056343D01*
X0085661Y0049709D01*
X0085314Y0050056D01*
X0083550Y0050787D01*
X0081640Y0050787D01*
X0079876Y0050056D01*
X0078526Y0048706D01*
X0077795Y0046941D01*
X0077795Y0045032D01*
X0078526Y0043268D01*
X0079876Y0041917D01*
X0081640Y0041187D01*
X0081738Y0041187D01*
X0083595Y0039330D01*
X0083595Y0010987D01*
X0037595Y0010987D01*
X0037595Y0011355D02*
X0083595Y0011355D01*
X0083595Y0013754D02*
X0037595Y0013754D01*
X0037595Y0016152D02*
X0083595Y0016152D01*
X0083595Y0018551D02*
X0037595Y0018551D01*
X0037595Y0020949D02*
X0083595Y0020949D01*
X0083595Y0023348D02*
X0037595Y0023348D01*
X0037595Y0025746D02*
X0083595Y0025746D01*
X0083595Y0028145D02*
X0037595Y0028145D01*
X0037595Y0030543D02*
X0083595Y0030543D01*
X0083595Y0032942D02*
X0037595Y0032942D01*
X0037595Y0035340D02*
X0083595Y0035340D01*
X0083595Y0037739D02*
X0037595Y0037739D01*
X0037595Y0040137D02*
X0082787Y0040137D01*
X0079258Y0042536D02*
X0037595Y0042536D01*
X0037595Y0044935D02*
X0077835Y0044935D01*
X0077957Y0047333D02*
X0037595Y0047333D01*
X0037595Y0049732D02*
X0079552Y0049732D01*
X0082595Y0045987D02*
X0087595Y0040987D01*
X0097083Y0040987D01*
X0099095Y0042998D01*
X0097595Y0042536D02*
X0087595Y0042536D01*
X0087595Y0044935D02*
X0097595Y0044935D01*
X0097595Y0047333D02*
X0088942Y0047333D01*
X0087595Y0045987D02*
X0087595Y0010987D01*
X0112595Y0010987D01*
X0112595Y0025987D01*
X0103612Y0034970D01*
X0103371Y0035070D01*
X0102584Y0035857D01*
X0102484Y0036098D01*
X0097595Y0040987D01*
X0097595Y0055987D01*
X0087595Y0045987D01*
X0085683Y0049732D02*
X0085638Y0049732D01*
X0088082Y0052130D02*
X0075527Y0052130D01*
X0077187Y0054529D02*
X0090480Y0054529D01*
X0092295Y0056927D02*
X0077395Y0056927D01*
X0076044Y0059326D02*
X0093439Y0059326D01*
X0095837Y0061724D02*
X0072515Y0061724D01*
X0070116Y0064123D02*
X0098236Y0064123D01*
X0097595Y0054529D02*
X0096137Y0054529D01*
X0097595Y0052130D02*
X0093739Y0052130D01*
X0091340Y0049732D02*
X0097595Y0049732D01*
X0102937Y0047333D02*
X0137595Y0047333D01*
X0137595Y0044935D02*
X0103033Y0044935D01*
X0103095Y0042536D02*
X0137595Y0042536D01*
X0137595Y0040137D02*
X0104101Y0040137D01*
X0106500Y0037739D02*
X0137595Y0037739D01*
X0137595Y0035340D02*
X0108898Y0035340D01*
X0111297Y0032942D02*
X0137595Y0032942D01*
X0137595Y0030543D02*
X0113695Y0030543D01*
X0116031Y0028145D02*
X0137595Y0028145D01*
X0137595Y0025746D02*
X0116595Y0025746D01*
X0116595Y0023348D02*
X0137595Y0023348D01*
X0137595Y0020949D02*
X0116595Y0020949D01*
X0116595Y0018551D02*
X0137595Y0018551D01*
X0137595Y0016152D02*
X0116595Y0016152D01*
X0116595Y0013754D02*
X0137595Y0013754D01*
X0137595Y0011355D02*
X0116595Y0011355D01*
X0112595Y0011355D02*
X0087595Y0011355D01*
X0087595Y0013754D02*
X0112595Y0013754D01*
X0112595Y0016152D02*
X0087595Y0016152D01*
X0087595Y0018551D02*
X0112595Y0018551D01*
X0112595Y0020949D02*
X0087595Y0020949D01*
X0087595Y0023348D02*
X0112595Y0023348D01*
X0112595Y0025746D02*
X0087595Y0025746D01*
X0087595Y0028145D02*
X0110437Y0028145D01*
X0108038Y0030543D02*
X0087595Y0030543D01*
X0087595Y0032942D02*
X0105640Y0032942D01*
X0103100Y0035340D02*
X0087595Y0035340D01*
X0087595Y0037739D02*
X0100843Y0037739D01*
X0098444Y0040137D02*
X0087595Y0040137D01*
X0103632Y0054529D02*
X0137595Y0054529D01*
X0137595Y0056927D02*
X0126298Y0056927D01*
X0127903Y0059326D02*
X0137595Y0059326D01*
X0137595Y0061724D02*
X0128195Y0061724D01*
X0127423Y0064123D02*
X0137595Y0064123D01*
X0137595Y0066521D02*
X0124247Y0066521D01*
X0120943Y0066521D02*
X0086380Y0066521D01*
X0086694Y0068920D02*
X0137595Y0068920D01*
X0137595Y0071318D02*
X0086694Y0071318D01*
X0086694Y0073717D02*
X0137595Y0073717D01*
X0137595Y0076115D02*
X0125801Y0076115D01*
X0127697Y0078514D02*
X0137595Y0078514D01*
X0137595Y0080912D02*
X0128195Y0080912D01*
X0127629Y0083311D02*
X0137595Y0083311D01*
X0137595Y0085709D02*
X0125447Y0085709D01*
X0116595Y0088108D02*
X0137595Y0088108D01*
X0137595Y0090506D02*
X0116595Y0090506D01*
X0116595Y0092905D02*
X0137595Y0092905D01*
X0137595Y0095303D02*
X0116595Y0095303D01*
X0116595Y0097702D02*
X0137595Y0097702D01*
X0137595Y0100100D02*
X0116595Y0100100D01*
X0116595Y0102499D02*
X0137595Y0102499D01*
X0137595Y0104897D02*
X0116595Y0104897D01*
X0116595Y0107296D02*
X0137595Y0107296D01*
X0137595Y0109694D02*
X0116595Y0109694D01*
X0116595Y0112093D02*
X0137595Y0112093D01*
X0137595Y0114491D02*
X0116595Y0114491D01*
X0116595Y0116890D02*
X0137595Y0116890D01*
X0137595Y0119288D02*
X0116595Y0119288D01*
X0116595Y0121687D02*
X0137595Y0121687D01*
X0137595Y0124085D02*
X0116595Y0124085D01*
X0116595Y0126484D02*
X0137595Y0126484D01*
X0137595Y0128882D02*
X0116595Y0128882D01*
X0112595Y0128882D02*
X0087595Y0128882D01*
X0087595Y0126484D02*
X0112595Y0126484D01*
X0112595Y0124085D02*
X0087595Y0124085D01*
X0087595Y0121687D02*
X0112595Y0121687D01*
X0112595Y0119288D02*
X0087595Y0119288D01*
X0087595Y0116890D02*
X0112595Y0116890D01*
X0112595Y0114491D02*
X0087595Y0114491D01*
X0087595Y0112093D02*
X0112595Y0112093D01*
X0112595Y0109694D02*
X0086303Y0109694D01*
X0087595Y0110987D02*
X0087595Y0130987D01*
X0112595Y0130987D01*
X0112595Y0086129D01*
X0097494Y0086129D01*
X0096617Y0087006D01*
X0094007Y0088087D01*
X0091183Y0088087D01*
X0088573Y0087006D01*
X0087554Y0085987D01*
X0082595Y0085987D01*
X0082595Y0105987D01*
X0087595Y0110987D01*
X0083045Y0112093D02*
X0037595Y0112093D01*
X0037595Y0114491D02*
X0083595Y0114491D01*
X0083595Y0116890D02*
X0037595Y0116890D01*
X0037595Y0119288D02*
X0083595Y0119288D01*
X0083595Y0121687D02*
X0037595Y0121687D01*
X0037595Y0124085D02*
X0083595Y0124085D01*
X0083595Y0126484D02*
X0037595Y0126484D01*
X0037595Y0128882D02*
X0083595Y0128882D01*
X0080646Y0109694D02*
X0037595Y0109694D01*
X0037595Y0107296D02*
X0078808Y0107296D01*
X0077157Y0104897D02*
X0037595Y0104897D01*
X0037595Y0102499D02*
X0077157Y0102499D01*
X0077157Y0100100D02*
X0037595Y0100100D01*
X0037595Y0097702D02*
X0077157Y0097702D01*
X0078138Y0095303D02*
X0037595Y0095303D01*
X0037595Y0092905D02*
X0076369Y0092905D01*
X0075995Y0090506D02*
X0037595Y0090506D01*
X0037595Y0088108D02*
X0076535Y0088108D01*
X0076535Y0085709D02*
X0037595Y0085709D01*
X0037595Y0083311D02*
X0076535Y0083311D01*
X0076535Y0080912D02*
X0058317Y0080912D01*
X0060036Y0075987D02*
X0053855Y0075987D01*
X0052595Y0077246D01*
X0046646Y0076115D02*
X0037595Y0076115D01*
X0037595Y0073717D02*
X0046817Y0073717D01*
X0046646Y0078514D02*
X0037595Y0078514D01*
X0037595Y0080912D02*
X0046873Y0080912D01*
X0037595Y0071318D02*
X0061154Y0071318D01*
X0060036Y0065987D02*
X0053855Y0065987D01*
X0052595Y0064727D01*
X0047120Y0068920D02*
X0037595Y0068920D01*
X0037595Y0066521D02*
X0046646Y0066521D01*
X0046646Y0064123D02*
X0037595Y0064123D01*
X0037595Y0061724D02*
X0046646Y0061724D01*
X0037595Y0059326D02*
X0063599Y0059326D01*
X0065998Y0056927D02*
X0037595Y0056927D01*
X0037595Y0054529D02*
X0068004Y0054529D01*
X0069663Y0052130D02*
X0037595Y0052130D01*
X0065154Y0063428D02*
X0072595Y0055987D01*
X0065154Y0063428D02*
X0065154Y0065987D01*
X0065154Y0075987D01*
X0069250Y0078514D02*
X0076535Y0078514D01*
X0082595Y0088108D02*
X0112595Y0088108D01*
X0112595Y0090506D02*
X0082595Y0090506D01*
X0082595Y0092905D02*
X0112595Y0092905D01*
X0112595Y0095303D02*
X0082595Y0095303D01*
X0082595Y0097702D02*
X0112595Y0097702D01*
X0112595Y0100100D02*
X0082595Y0100100D01*
X0082595Y0102499D02*
X0112595Y0102499D01*
X0112595Y0104897D02*
X0082595Y0104897D01*
X0083904Y0107296D02*
X0112595Y0107296D01*
X0087426Y0076115D02*
X0086135Y0076115D01*
X0104358Y0052130D02*
X0137595Y0052130D01*
X0137595Y0049732D02*
X0104312Y0049732D01*
D23*
X0112595Y0040987D03*
X0117595Y0045987D03*
X0122595Y0050987D03*
X0127595Y0045987D03*
X0122595Y0040987D03*
X0117595Y0035987D03*
X0062595Y0100987D03*
X0057595Y0105987D03*
X0052595Y0100987D03*
X0047595Y0095987D03*
X0052595Y0090987D03*
X0057595Y0095987D03*
D24*
X0081095Y0090987D02*
X0081335Y0090987D01*
X0083107Y0092758D01*
X0083107Y0100987D01*
X0092595Y0100987D01*
X0100095Y0108487D01*
X0100095Y0120987D01*
X0081335Y0090987D02*
X0081335Y0070987D01*
D25*
X0073855Y0070987D02*
X0065154Y0070987D01*
X0065154Y0075987D01*
D26*
X0072595Y0055987D03*
X0082595Y0045987D03*
M02*
