G75*
%MOIN*%
%OFA0B0*%
%FSLAX25Y25*%
%IPPOS*%
%LPD*%
%AMOC8*
5,1,8,0,0,1.08239X$1,22.5*
%
%ADD10R,0.06899X0.07687*%
%ADD11OC8,0.05200*%
%ADD12C,0.05200*%
%ADD13C,0.15600*%
%ADD14C,0.06200*%
%ADD15R,0.05718X0.06899*%
%ADD16R,0.06899X0.05718*%
%ADD17R,0.03356X0.04143*%
%ADD18C,0.09200*%
%ADD19C,0.17198*%
%ADD20C,0.04756*%
%ADD21C,0.04362*%
%ADD22C,0.04600*%
D10*
X0072083Y0100987D03*
X0083107Y0100987D03*
X0097083Y0040987D03*
X0108107Y0040987D03*
D11*
X0106095Y0050987D03*
X0074095Y0090987D03*
D12*
X0081095Y0090987D03*
X0099095Y0050987D03*
D13*
X0100095Y0020987D03*
X0075095Y0020987D03*
X0075095Y0120987D03*
X0100095Y0120987D03*
D14*
X0122595Y0080829D03*
X0122595Y0061144D03*
D15*
X0081335Y0070987D03*
X0073855Y0070987D03*
D16*
X0052595Y0077246D03*
X0052595Y0084727D03*
X0052595Y0064727D03*
X0052595Y0057246D03*
D17*
X0060036Y0065987D03*
X0065154Y0065987D03*
X0065154Y0075987D03*
X0060036Y0075987D03*
D18*
X0092595Y0080987D03*
X0092595Y0100987D03*
D19*
X0047595Y0020987D03*
X0127595Y0020987D03*
X0127595Y0120987D03*
X0047595Y0120987D03*
D20*
X0052595Y0050987D03*
D21*
X0052595Y0090987D03*
X0047595Y0095987D03*
X0052595Y0100987D03*
X0057595Y0105987D03*
X0062595Y0100987D03*
X0057595Y0095987D03*
X0112595Y0040987D03*
X0117595Y0045987D03*
X0122595Y0050987D03*
X0127595Y0045987D03*
X0122595Y0040987D03*
X0117595Y0035987D03*
D22*
X0082595Y0045987D03*
X0072595Y0055987D03*
M02*
